<svg width="86" height="85" viewBox="0 0 86 85" fill="none" xmlns="http://www.w3.org/2000/svg">
<g clip-path="url(#clip0_214_1037)">
<mask id="path-1-inside-1_214_1037" fill="white">
<rect x="0.530273" y="0.11792" width="84.5688" height="84.5688" rx="2.73433"/>
</mask>
<rect x="0.530273" y="0.11792" width="84.5688" height="84.5688" rx="2.73433" fill="#F5FFFD" stroke="black" stroke-width="8.20298" mask="url(#path-1-inside-1_214_1037)"/>
<path d="M23.008 20.6271C22.7604 20.3794 22.4663 20.1829 22.1427 20.0489C21.8191 19.9148 21.4722 19.8458 21.1219 19.8458C20.7717 19.8458 20.4248 19.9148 20.1012 20.0489C19.7776 20.1829 19.4835 20.3794 19.2358 20.6271C18.7356 21.1273 18.4546 21.8058 18.4546 22.5132C18.4546 23.2206 18.7356 23.8991 19.2358 24.3993L34.1918 39.3553C33.2456 41.1155 32.8917 43.1338 33.1826 45.111C33.4735 47.0881 34.3937 48.9189 35.8068 50.332C37.2199 51.7452 39.0508 52.6654 41.0279 52.9562C43.0051 53.2471 45.0233 52.8932 46.7836 51.947L61.7396 66.903C61.9865 67.152 62.2803 67.3496 62.6041 67.4845C62.9278 67.6194 63.275 67.6888 63.6257 67.6888C63.9764 67.6888 64.3236 67.6194 64.6473 67.4845C64.971 67.3496 65.2648 67.152 65.5118 66.903C65.7608 66.6561 65.9584 66.3623 66.0933 66.0385C66.2281 65.7148 66.2976 65.3676 66.2976 65.0169C66.2976 64.6662 66.2281 64.319 66.0933 63.9953C65.9584 63.6716 65.7608 63.3778 65.5118 63.1308L23.008 20.6271ZM42.3738 47.7498C41.317 47.7498 40.3035 47.33 39.5562 46.5827C38.8089 45.8354 38.3891 44.8219 38.3891 43.765V43.5791L42.5332 47.7232L42.3738 47.7498Z" fill="black"/>
<path d="M42.9579 57.0476C31.535 57.3133 24.0438 47.5109 21.706 43.7652C23.3703 41.1106 25.3703 38.6819 27.6566 36.5396L23.7781 32.7939C20.7798 35.619 18.2112 38.8678 16.154 42.437C15.9208 42.8408 15.7981 43.2989 15.7981 43.7652C15.7981 44.2315 15.9208 44.6896 16.154 45.0935C17.8276 47.989 26.7799 62.3606 42.4266 62.3606H43.0907C46.0329 62.2733 48.937 61.6709 51.6712 60.5808L47.4739 56.3835C45.9979 56.7718 44.4832 56.9946 42.9579 57.0476Z" fill="black"/>
<path d="M68.5936 42.4369C66.8935 39.4882 57.5161 24.6916 41.6569 25.1698C38.7147 25.2571 35.8106 25.8595 33.0764 26.9496L37.2737 31.1469C38.7497 30.7586 40.2644 30.5358 41.7897 30.4827C53.186 30.1905 60.6773 40.0195 63.0416 43.7652C61.3363 46.4277 59.2913 48.8567 56.9582 50.9908L60.9695 54.7364C64.0054 51.9188 66.6101 48.6696 68.6999 45.0934C68.9171 44.6803 69.0216 44.2173 69.003 43.7509C68.9843 43.2846 68.8431 42.8314 68.5936 42.4369Z" fill="black"/>
</g>
<defs>
<clipPath id="clip0_214_1037">
<rect width="85" height="85" fill="white" transform="translate(0.530273)"/>
</clipPath>
</defs>
</svg>
