<svg width="86" height="85" viewBox="0 0 86 85" fill="none" xmlns="http://www.w3.org/2000/svg">
<g clip-path="url(#clip0_214_1053)">
<mask id="path-1-inside-1_214_1053" fill="white">
<rect x="0.886963" y="0.112183" width="84.0116" height="84.0116" rx="2"/>
</mask>
<rect x="0.886963" y="0.112183" width="84.0116" height="84.0116" rx="2" fill="#F5FFFD" stroke="black" stroke-width="6" mask="url(#path-1-inside-1_214_1053)"/>
<path fill-rule="evenodd" clip-rule="evenodd" d="M25.7891 27.5489L39.4854 20.7009L41.202 24.1342L27.5057 30.9822L25.7891 27.5489Z" fill="black"/>
<path fill-rule="evenodd" clip-rule="evenodd" d="M45.3767 38.5523L58.7039 31.0111L60.5943 34.3518L47.2671 41.893L45.3767 38.5523Z" fill="black"/>
<path fill-rule="evenodd" clip-rule="evenodd" d="M45.1052 60.0224L58.7732 53.1183L60.5039 56.5445L46.8358 63.4486L45.1052 60.0224Z" fill="black"/>
<path fill-rule="evenodd" clip-rule="evenodd" d="M41.0567 59.0649V46.1967H44.8952V59.0649H41.0567Z" fill="black"/>
<path fill-rule="evenodd" clip-rule="evenodd" d="M41.755 39.2538L28.4278 31.7126L26.5374 35.0534L39.8646 42.5946L41.755 39.2538Z" fill="black"/>
<path fill-rule="evenodd" clip-rule="evenodd" d="M41.0219 59.9697L27.3814 53.0112L25.6371 56.4305L39.2776 63.389L41.0219 59.9697Z" fill="black"/>
<path fill-rule="evenodd" clip-rule="evenodd" d="M42.9009 19.0028C41.7581 19.0028 40.8316 19.9293 40.8316 21.0722C40.8316 22.2151 41.7581 23.1416 42.9009 23.1416C44.0438 23.1416 44.9703 22.2151 44.9703 21.0722C44.9703 19.9293 44.0438 19.0028 42.9009 19.0028ZM36.9931 21.0722C36.9931 17.8094 39.6381 15.1643 42.9009 15.1643C46.1638 15.1643 48.8088 17.8094 48.8088 21.0722C48.8088 24.335 46.1638 26.9801 42.9009 26.9801C39.6381 26.9801 36.9931 24.335 36.9931 21.0722Z" fill="black"/>
<path fill-rule="evenodd" clip-rule="evenodd" d="M23.1423 28.9313C21.9994 28.9313 21.0729 29.8578 21.0729 31.0007C21.0729 32.1435 21.9994 33.07 23.1423 33.07C24.2851 33.07 25.2116 32.1435 25.2116 31.0007C25.2116 29.8578 24.2851 28.9313 23.1423 28.9313ZM17.2344 31.0007C17.2344 27.7378 19.8794 25.0928 23.1423 25.0928C26.4051 25.0928 29.0501 27.7378 29.0501 31.0007C29.0501 34.2635 26.4051 36.9085 23.1423 36.9085C19.8794 36.9085 17.2344 34.2635 17.2344 31.0007Z" fill="black"/>
<path fill-rule="evenodd" clip-rule="evenodd" d="M42.9018 40.0491C41.7589 40.0491 40.8324 40.9756 40.8324 42.1185C40.8324 43.2613 41.7589 44.1878 42.9018 44.1878C44.0447 44.1878 44.9712 43.2613 44.9712 42.1185C44.9712 40.9756 44.0447 40.0491 42.9018 40.0491ZM36.9939 42.1185C36.9939 38.8556 39.639 36.2106 42.9018 36.2106C46.1646 36.2106 48.8097 38.8556 48.8097 42.1185C48.8097 45.3813 46.1646 48.0264 42.9018 48.0264C39.639 48.0264 36.9939 45.3813 36.9939 42.1185Z" fill="black"/>
<path fill-rule="evenodd" clip-rule="evenodd" d="M42.9009 61.0945C41.7581 61.0945 40.8316 62.021 40.8316 63.1639C40.8316 64.3068 41.7581 65.2332 42.9009 65.2332C44.0438 65.2332 44.9703 64.3068 44.9703 63.1639C44.9703 62.021 44.0438 61.0945 42.9009 61.0945ZM36.9931 63.1639C36.9931 59.9011 39.6381 57.256 42.9009 57.256C46.1638 57.256 48.8088 59.9011 48.8088 63.1639C48.8088 66.4267 46.1638 69.0718 42.9009 69.0718C39.6381 69.0718 36.9931 66.4267 36.9931 63.1639Z" fill="black"/>
<path fill-rule="evenodd" clip-rule="evenodd" d="M23.1423 51.1661C21.9994 51.1661 21.0729 52.0925 21.0729 53.2354C21.0729 54.3783 21.9994 55.3048 23.1423 55.3048C24.2851 55.3048 25.2116 54.3783 25.2116 53.2354C25.2116 52.0925 24.2851 51.1661 23.1423 51.1661ZM17.2344 53.2354C17.2344 49.9726 19.8794 47.3275 23.1423 47.3275C26.4051 47.3275 29.0501 49.9726 29.0501 53.2354C29.0501 56.4983 26.4051 59.1433 23.1423 59.1433C19.8794 59.1433 17.2344 56.4983 17.2344 53.2354Z" fill="black"/>
<path fill-rule="evenodd" clip-rule="evenodd" d="M62.8578 51.1661C61.715 51.1661 60.7885 52.0925 60.7885 53.2354C60.7885 54.3783 61.715 55.3048 62.8578 55.3048C64.0007 55.3048 64.9272 54.3783 64.9272 53.2354C64.9272 52.0925 64.0007 51.1661 62.8578 51.1661ZM56.95 53.2354C56.95 49.9726 59.595 47.3275 62.8578 47.3275C66.1207 47.3275 68.7657 49.9726 68.7657 53.2354C68.7657 56.4983 66.1207 59.1433 62.8578 59.1433C59.595 59.1433 56.95 56.4983 56.95 53.2354Z" fill="black"/>
<path fill-rule="evenodd" clip-rule="evenodd" d="M62.8578 28.9313C61.715 28.9313 60.7885 29.8578 60.7885 31.0007C60.7885 32.1435 61.715 33.07 62.8578 33.07C64.0007 33.07 64.9272 32.1435 64.9272 31.0007C64.9272 29.8578 64.0007 28.9313 62.8578 28.9313ZM56.95 31.0007C56.95 27.7378 59.595 25.0928 62.8578 25.0928C66.1207 25.0928 68.7657 27.7378 68.7657 31.0007C68.7657 34.2635 66.1207 36.9085 62.8578 36.9085C59.595 36.9085 56.95 34.2635 56.95 31.0007Z" fill="black"/>
</g>
<defs>
<clipPath id="clip0_214_1053">
<rect width="85" height="85" fill="white" transform="translate(0.530273)"/>
</clipPath>
</defs>
</svg>
