<svg width="1122" height="360" viewBox="0 0 1122 360" fill="none" xmlns="http://www.w3.org/2000/svg">
<path d="M543.463 174.929H974.213" stroke="url(#paint0_linear_216_1884)" stroke-width="32"/>
<path d="M122.871 174.929L539.126 174.929" stroke="url(#paint1_linear_216_1884)" stroke-width="32"/>
<path d="M614.586 173.948H743.118C758.717 173.948 772.862 164.794 779.252 150.564L808.561 85.2908C814.951 71.0612 829.097 61.9065 844.695 61.9065H918.859" stroke="url(#paint2_linear_216_1884)" stroke-width="32"/>
<path d="M547.797 174.929H684.089C699.51 174.929 713.529 183.879 720.019 197.867L751.462 265.635C757.953 279.623 771.971 288.573 787.392 288.573H895.408" stroke="url(#paint3_linear_216_1884)" stroke-width="32"/>
<mask id="path-5-outside-1_216_1884" maskUnits="userSpaceOnUse" x="0.996094" y="128.185" width="202" height="94" fill="black">
<rect fill="white" x="0.996094" y="128.185" width="202" height="94"/>
<path d="M0.996094 128.185H197.802V221.674H0.996094V128.185Z"/>
</mask>
<path d="M0.996094 128.185H197.802V221.674H0.996094V128.185Z" fill="#444444"/>
<path d="M192.851 128.185V221.674H202.753V128.185H192.851Z" fill="#F0F0F0" mask="url(#path-5-outside-1_216_1884)"/>
<mask id="path-7-inside-2_216_1884" fill="white">
<rect x="6.41943" y="133.67" width="82.5194" height="82.5194" rx="3.30078"/>
</mask>
<rect x="6.41943" y="133.67" width="82.5194" height="82.5194" rx="3.30078" fill="#F0F0F0" stroke="black" stroke-width="9.90233" mask="url(#path-7-inside-2_216_1884)"/>
<path d="M42.9983 183.612C41.9497 184.256 40.6603 184.579 39.1302 184.579C36.6117 184.579 34.5487 183.706 32.9413 181.961C31.2651 180.208 30.427 177.81 30.427 174.767C30.427 171.689 31.2737 169.222 32.9671 167.366C34.6604 165.509 36.8996 164.581 39.6847 164.581C42.1001 164.581 44.0384 165.195 45.4997 166.425C46.9696 167.645 47.812 169.171 48.0269 171.002H44.1201C43.8192 169.704 43.0843 168.797 41.9153 168.281C41.262 167.998 40.5357 167.856 39.7362 167.856C38.2062 167.856 36.9469 168.436 35.9584 169.596C34.9785 170.748 34.4885 172.485 34.4885 174.805C34.4885 177.143 35.0215 178.798 36.0873 179.769C37.1532 180.741 38.3652 181.226 39.7234 181.226C41.0557 181.226 42.1474 180.844 42.9983 180.079C43.8493 179.305 44.3737 178.295 44.5714 177.049H40.1746V173.877H48.0913V184.076H45.461L45.0613 181.703C44.2963 182.606 43.6086 183.242 42.9983 183.612ZM55.3762 170.022V184.076H51.65V170.022H55.3762ZM55.3762 164.955V168.346H51.65V164.955H55.3762ZM65.3817 181.459V184.205L63.6411 184.269C61.9047 184.33 60.7185 184.029 60.0824 183.367C59.6698 182.946 59.4635 182.297 59.4635 181.42V172.768H57.5037V170.151H59.4635V166.231H63.0995V170.151H65.3817V172.768H63.0995V180.195C63.0995 180.771 63.1726 181.132 63.3187 181.278C63.4649 181.416 63.9118 181.484 64.6597 181.484C64.7714 181.484 64.8875 181.484 65.0078 181.484C65.1367 181.476 65.2614 181.467 65.3817 181.459Z" fill="#111113"/>
<path d="M137.188 183.612C136.14 184.256 134.85 184.579 133.32 184.579C130.802 184.579 128.739 183.706 127.131 181.961C125.455 180.208 124.617 177.81 124.617 174.767C124.617 171.689 125.464 169.222 127.157 167.366C128.851 165.509 131.09 164.581 133.875 164.581C136.29 164.581 138.229 165.195 139.69 166.425C141.16 167.645 142.002 169.171 142.217 171.002H138.31C138.009 169.704 137.274 168.797 136.105 168.281C135.452 167.998 134.726 167.856 133.926 167.856C132.396 167.856 131.137 168.436 130.149 169.596C129.169 170.748 128.679 172.485 128.679 174.805C128.679 177.143 129.212 178.798 130.277 179.769C131.343 180.741 132.555 181.226 133.913 181.226C135.246 181.226 136.337 180.844 137.188 180.079C138.039 179.305 138.564 178.295 138.761 177.049H134.365V173.877H142.281V184.076H139.651L139.251 181.703C138.486 182.606 137.799 183.242 137.188 183.612ZM149.566 170.022V184.076H145.84V170.022H149.566ZM149.566 164.955V168.346H145.84V164.955H149.566ZM159.572 181.459V184.205L157.831 184.269C156.095 184.33 154.909 184.029 154.273 183.367C153.86 182.946 153.654 182.297 153.654 181.42V172.768H151.694V170.151H153.654V166.231H157.29V170.151H159.572V172.768H157.29V180.195C157.29 180.771 157.363 181.132 157.509 181.278C157.655 181.416 158.102 181.484 158.85 181.484C158.962 181.484 159.078 181.484 159.198 181.484C159.327 181.476 159.452 181.467 159.572 181.459ZM165.271 169.106C164.858 169.657 164.661 170.391 164.678 171.311H161.248C161.282 170.383 161.441 169.502 161.725 168.668C162.026 167.937 162.499 167.263 163.143 166.644C163.625 166.205 164.196 165.87 164.858 165.638C165.52 165.406 166.332 165.29 167.295 165.29C169.083 165.29 170.523 165.754 171.615 166.682C172.715 167.602 173.265 168.84 173.265 170.396C173.265 171.496 172.938 172.424 172.285 173.181C171.872 173.654 171.443 173.976 170.996 174.148C171.331 174.148 171.812 174.436 172.44 175.012C173.377 175.88 173.845 177.066 173.845 178.57C173.845 180.152 173.295 181.544 172.195 182.748C171.103 183.943 169.483 184.54 167.334 184.54C164.686 184.54 162.847 183.676 161.815 181.948C161.274 181.029 160.973 179.825 160.913 178.338H164.523C164.523 179.086 164.643 179.705 164.884 180.195C165.331 181.097 166.143 181.549 167.321 181.549C168.043 181.549 168.67 181.304 169.203 180.814C169.745 180.315 170.016 179.602 170.016 178.673C170.016 177.444 169.517 176.623 168.52 176.211C167.953 175.979 167.059 175.863 165.838 175.863V173.232C167.033 173.215 167.867 173.099 168.34 172.884C169.156 172.523 169.564 171.793 169.564 170.692C169.564 169.979 169.354 169.399 168.933 168.952C168.52 168.505 167.936 168.281 167.179 168.281C166.311 168.281 165.675 168.556 165.271 169.106Z" fill="#F5FFFD"/>
<path opacity="0.6" d="M97.6394 163.584L113.053 174.929L97.6394 186.274L97.6394 163.584Z" fill="#7C7C7C"/>
<g filter="url(#filter0_d_216_1884)">
<mask id="path-11-outside-3_216_1884" maskUnits="userSpaceOnUse" x="890.408" y="13.8176" width="189" height="92" fill="black">
<rect fill="white" x="890.408" y="13.8176" width="189" height="92"/>
<path d="M895.408 13.8176H1079.41V105.818H895.408V13.8176Z"/>
</mask>
<path d="M895.408 13.8176H1079.41V105.818H895.408V13.8176Z" fill="#444444"/>
<path d="M900.359 105.818V13.8176H890.457V105.818H900.359Z" fill="#F0F0F0" mask="url(#path-11-outside-3_216_1884)"/>
</g>
<path d="M950.096 53.5604H940.567V57.9314H948.91V61.2322H940.567V69.2004H936.622V50.221H950.096V53.5604ZM956.246 55.1464V69.2004H952.52V55.1464H956.246ZM956.246 50.0792V53.4702H952.52V50.0792H956.246ZM959.895 50.1952H963.57V69.2004H959.895V50.1952ZM979.197 65.0745C979.102 65.9083 978.668 66.7549 977.895 67.6145C976.691 68.9812 975.006 69.6646 972.84 69.6646C971.052 69.6646 969.475 69.0887 968.108 67.9369C966.742 66.785 966.058 64.9112 966.058 62.3152C966.058 59.8826 966.673 58.0173 967.902 56.7194C969.14 55.4214 970.743 54.7724 972.711 54.7724C973.88 54.7724 974.933 54.9916 975.87 55.43C976.807 55.8684 977.581 56.5604 978.191 57.5059C978.741 58.3397 979.098 59.3067 979.261 60.407C979.356 61.0517 979.395 61.98 979.377 63.192H969.759C969.81 64.6017 970.253 65.5902 971.087 66.1575C971.594 66.51 972.204 66.6862 972.918 66.6862C973.674 66.6862 974.289 66.4713 974.761 66.0415C975.019 65.8094 975.247 65.4871 975.445 65.0745H979.197ZM975.561 60.768C975.501 59.7967 975.204 59.0617 974.671 58.5632C974.147 58.056 973.494 57.8024 972.711 57.8024C971.86 57.8024 971.199 58.0689 970.726 58.6019C970.262 59.1348 969.969 59.8568 969.849 60.768H975.561ZM994.025 60.1878H990.26C990.191 59.6634 990.015 59.1907 989.731 58.7695C989.318 58.2022 988.678 57.9185 987.81 57.9185C986.572 57.9185 985.725 58.5331 985.27 59.7623C985.029 60.4156 984.909 61.2837 984.909 62.3668C984.909 63.3983 985.029 64.2278 985.27 64.8553C985.708 66.0243 986.533 66.6088 987.745 66.6088C988.605 66.6088 989.215 66.3767 989.576 65.9126C989.937 65.4484 990.156 64.8467 990.234 64.1074H993.986C993.9 65.2249 993.496 66.2822 992.774 67.2793C991.622 68.8867 989.916 69.6904 987.655 69.6904C985.394 69.6904 983.731 69.0199 982.665 67.679C981.599 66.338 981.066 64.5974 981.066 62.4571C981.066 60.0416 981.655 58.1635 982.833 56.8225C984.01 55.4816 985.635 54.8111 987.707 54.8111C989.469 54.8111 990.909 55.2065 992.026 55.9973C993.152 56.7881 993.818 58.185 994.025 60.1878ZM1008.28 56.9257C1009.47 58.4127 1010.06 60.1706 1010.06 62.1992C1010.06 64.2622 1009.47 66.0286 1008.28 67.4985C1007.1 68.9598 1005.3 69.6904 1002.88 69.6904C1000.47 69.6904 998.666 68.9598 997.48 67.4985C996.294 66.0286 995.701 64.2622 995.701 62.1992C995.701 60.1706 996.294 58.4127 997.48 56.9257C998.666 55.4386 1000.47 54.6951 1002.88 54.6951C1005.3 54.6951 1007.1 55.4386 1008.28 56.9257ZM1002.87 57.8024C1001.8 57.8024 1000.97 58.185 1000.38 58.95C999.805 59.7064 999.517 60.7895 999.517 62.1992C999.517 63.6089 999.805 64.6963 1000.38 65.4613C1000.97 66.2263 1001.8 66.6088 1002.87 66.6088C1003.94 66.6088 1004.77 66.2263 1005.35 65.4613C1005.92 64.6963 1006.21 63.6089 1006.21 62.1992C1006.21 60.7895 1005.92 59.7064 1005.35 58.95C1004.77 58.185 1003.94 57.8024 1002.87 57.8024ZM1016.49 55.1464V69.2004H1012.76V55.1464H1016.49ZM1016.49 50.0792V53.4702H1012.76V50.0792H1016.49ZM1026.67 57.8669C1025.42 57.8669 1024.57 58.3956 1024.11 59.4528C1023.86 60.0116 1023.74 60.725 1023.74 61.5932V69.2004H1020.08V55.1721H1023.63V57.2222C1024.1 56.5002 1024.55 55.9801 1024.97 55.6621C1025.73 55.0948 1026.68 54.8111 1027.84 54.8111C1029.3 54.8111 1030.48 55.1936 1031.4 55.9587C1032.33 56.7151 1032.8 57.9744 1032.8 59.7365V69.2004H1029.03V60.6519C1029.03 59.9127 1028.93 59.3454 1028.73 58.95C1028.37 58.2279 1027.69 57.8669 1026.67 57.8669Z" fill="#F5FFFD"/>
<g filter="url(#filter1_d_216_1884)">
<mask id="path-14-outside-4_216_1884" maskUnits="userSpaceOnUse" x="838.236" y="240.88" width="189" height="92" fill="black">
<rect fill="white" x="838.236" y="240.88" width="189" height="92"/>
<path d="M843.236 240.88H1027.24V332.88H843.236V240.88Z"/>
</mask>
<path d="M843.236 240.88H1027.24V332.88H843.236V240.88Z" fill="#444444"/>
<path d="M848.187 332.88V240.88H838.284V332.88H848.187Z" fill="#F0F0F0" mask="url(#path-14-outside-4_216_1884)"/>
</g>
<path d="M885.359 291.372H878.357L877.042 295.279H872.891L879.673 276.273H884.16L890.89 295.279H886.584L885.359 291.372ZM884.25 288.097L881.877 280.618L879.428 288.097H884.25ZM900.083 284.616C898.605 284.616 897.612 285.097 897.105 286.06C896.821 286.601 896.679 287.435 896.679 288.561V295.279H892.979V281.224H896.486V283.674C897.053 282.737 897.547 282.097 897.969 281.753C898.656 281.177 899.55 280.889 900.651 280.889C900.719 280.889 900.775 280.894 900.818 280.902C900.87 280.902 900.977 280.906 901.141 280.915V284.68C900.908 284.654 900.702 284.637 900.522 284.628C900.341 284.62 900.195 284.616 900.083 284.616ZM913.97 295.279L911.765 285.041L909.534 295.279H905.718L901.772 281.224H905.718L907.91 291.307L909.934 281.224H913.66L915.801 291.346L917.993 281.224H921.822L917.748 295.279H913.97ZM935.889 291.153C935.794 291.986 935.36 292.833 934.587 293.693C933.383 295.059 931.698 295.743 929.532 295.743C927.744 295.743 926.167 295.167 924.8 294.015C923.434 292.863 922.75 290.989 922.75 288.393C922.75 285.961 923.365 284.095 924.594 282.798C925.832 281.5 927.435 280.851 929.403 280.851C930.572 280.851 931.625 281.07 932.562 281.508C933.499 281.947 934.273 282.638 934.883 283.584C935.433 284.418 935.79 285.385 935.953 286.485C936.048 287.13 936.087 288.058 936.069 289.27H926.451C926.502 290.68 926.945 291.668 927.779 292.236C928.286 292.588 928.896 292.764 929.61 292.764C930.366 292.764 930.981 292.549 931.453 292.12C931.711 291.888 931.939 291.565 932.137 291.153H935.889ZM932.253 286.846C932.193 285.875 931.896 285.14 931.363 284.641C930.839 284.134 930.186 283.881 929.403 283.881C928.552 283.881 927.891 284.147 927.418 284.68C926.954 285.213 926.661 285.935 926.541 286.846H932.253ZM939.087 282.746C940.058 281.508 941.725 280.889 944.089 280.889C945.628 280.889 946.995 281.194 948.189 281.805C949.384 282.415 949.982 283.567 949.982 285.26V291.707C949.982 292.154 949.99 292.696 950.007 293.332C950.033 293.813 950.106 294.14 950.227 294.312C950.347 294.483 950.528 294.625 950.768 294.737V295.279H946.771C946.659 294.995 946.582 294.728 946.539 294.479C946.496 294.23 946.462 293.946 946.436 293.628C945.929 294.178 945.344 294.647 944.682 295.034C943.892 295.489 942.998 295.717 942.001 295.717C940.728 295.717 939.675 295.356 938.842 294.634C938.016 293.903 937.604 292.872 937.604 291.539C937.604 289.812 938.27 288.561 939.602 287.787C940.333 287.366 941.407 287.065 942.826 286.885L944.076 286.73C944.755 286.644 945.241 286.537 945.533 286.408C946.058 286.184 946.32 285.836 946.32 285.363C946.32 284.787 946.118 284.392 945.714 284.177C945.318 283.954 944.734 283.842 943.96 283.842C943.092 283.842 942.478 284.057 942.117 284.487C941.859 284.805 941.687 285.234 941.601 285.776H938.055C938.132 284.547 938.476 283.537 939.087 282.746ZM941.82 292.622C942.164 292.906 942.585 293.048 943.084 293.048C943.874 293.048 944.601 292.816 945.263 292.352C945.933 291.888 946.281 291.041 946.307 289.812V288.445C946.075 288.591 945.839 288.711 945.598 288.806C945.366 288.892 945.043 288.974 944.631 289.051L943.806 289.206C943.032 289.343 942.478 289.511 942.142 289.709C941.575 290.044 941.291 290.564 941.291 291.269C941.291 291.896 941.468 292.347 941.82 292.622ZM951.877 281.224H956.003L958.93 291.591L961.921 281.224H965.867L960.799 295.279H956.918L951.877 281.224ZM979.985 291.153C979.891 291.986 979.457 292.833 978.683 293.693C977.48 295.059 975.795 295.743 973.629 295.743C971.841 295.743 970.263 295.167 968.897 294.015C967.53 292.863 966.847 290.989 966.847 288.393C966.847 285.961 967.461 284.095 968.69 282.798C969.928 281.5 971.531 280.851 973.5 280.851C974.669 280.851 975.722 281.07 976.659 281.508C977.596 281.947 978.369 282.638 978.979 283.584C979.53 284.418 979.886 285.385 980.05 286.485C980.144 287.13 980.183 288.058 980.166 289.27H970.547C970.599 290.68 971.041 291.668 971.875 292.236C972.382 292.588 972.993 292.764 973.706 292.764C974.462 292.764 975.077 292.549 975.55 292.12C975.808 291.888 976.035 291.565 976.233 291.153H979.985ZM976.349 286.846C976.289 285.875 975.992 285.14 975.46 284.641C974.935 284.134 974.282 283.881 973.5 283.881C972.649 283.881 971.987 284.147 971.514 284.68C971.05 285.213 970.758 285.935 970.637 286.846H976.349Z" fill="#F5FFFD"/>
<mask id="path-17-outside-5_216_1884" maskUnits="userSpaceOnUse" x="921.58" y="127.349" width="190" height="92" fill="black">
<rect fill="white" x="921.58" y="127.349" width="190" height="92"/>
<path d="M926.58 127.349H1111.39V219.349H926.58V127.349Z"/>
</mask>
<path d="M926.58 127.349H1111.39V219.349H926.58V127.349Z" fill="#444444"/>
<path d="M931.531 219.349V127.349H921.629V219.349H931.531Z" fill="#F0F0F0" mask="url(#path-17-outside-5_216_1884)"/>
<path d="M959.952 174.428H950.72V179.314H961.242V182.731H946.839V163.726H960.778V167.091H950.72V171.127H959.952V174.428ZM978.145 163.726V167.091H972.459V182.731H968.462V167.091H962.75V163.726H978.145ZM991.813 182.731V174.247H984.386V182.731H980.453V163.726H984.386V170.972H991.813V163.726H995.758V182.731H991.813ZM1006.46 179.985C1007.4 179.985 1008.16 179.882 1008.74 179.675C1009.85 179.28 1010.41 178.545 1010.41 177.471C1010.41 176.843 1010.13 176.357 1009.58 176.014C1009.03 175.678 1008.17 175.382 1006.99 175.124L1004.98 174.673C1003 174.226 1001.63 173.74 1000.88 173.216C999.596 172.339 998.956 170.968 998.956 169.103C998.956 167.401 999.575 165.987 1000.81 164.861C1002.05 163.735 1003.87 163.172 1006.27 163.172C1008.27 163.172 1009.98 163.704 1011.39 164.77C1012.8 165.828 1013.55 167.366 1013.62 169.386H1009.8C1009.73 168.243 1009.23 167.431 1008.3 166.949C1007.68 166.631 1006.92 166.472 1006 166.472C1004.97 166.472 1004.16 166.679 1003.55 167.091C1002.94 167.504 1002.63 168.08 1002.63 168.819C1002.63 169.498 1002.93 170.005 1003.53 170.34C1003.92 170.564 1004.74 170.826 1006.01 171.127L1009.28 171.913C1010.72 172.257 1011.8 172.717 1012.53 173.293C1013.67 174.187 1014.23 175.481 1014.23 177.174C1014.23 178.91 1013.57 180.354 1012.24 181.506C1010.91 182.65 1009.04 183.221 1006.61 183.221C1004.14 183.221 1002.19 182.658 1000.77 181.532C999.355 180.397 998.646 178.842 998.646 176.865H1002.44C1002.56 177.733 1002.79 178.382 1003.15 178.812C1003.79 179.594 1004.9 179.985 1006.46 179.985ZM1023.31 180.114V182.86L1021.57 182.925C1019.83 182.985 1018.65 182.684 1018.01 182.022C1017.6 181.601 1017.39 180.952 1017.39 180.075V171.423H1015.43V168.806H1017.39V164.886H1021.03V168.806H1023.31V171.423H1021.03V178.85C1021.03 179.426 1021.1 179.787 1021.25 179.933C1021.39 180.071 1021.84 180.14 1022.59 180.14C1022.7 180.14 1022.82 180.14 1022.94 180.14C1023.07 180.131 1023.19 180.122 1023.31 180.114ZM1037.39 170.456C1038.58 171.944 1039.17 173.701 1039.17 175.73C1039.17 177.793 1038.58 179.559 1037.39 181.029C1036.21 182.491 1034.4 183.221 1031.99 183.221C1029.57 183.221 1027.77 182.491 1026.59 181.029C1025.4 179.559 1024.81 177.793 1024.81 175.73C1024.81 173.701 1025.4 171.944 1026.59 170.456C1027.77 168.969 1029.57 168.226 1031.99 168.226C1034.4 168.226 1036.21 168.969 1037.39 170.456ZM1031.98 171.333C1030.9 171.333 1030.07 171.716 1029.49 172.481C1028.91 173.237 1028.62 174.32 1028.62 175.73C1028.62 177.14 1028.91 178.227 1029.49 178.992C1030.07 179.757 1030.9 180.14 1031.98 180.14C1033.05 180.14 1033.88 179.757 1034.45 178.992C1035.03 178.227 1035.32 177.14 1035.32 175.73C1035.32 174.32 1035.03 173.237 1034.45 172.481C1033.88 171.716 1033.05 171.333 1031.98 171.333ZM1048.88 172.068C1047.4 172.068 1046.41 172.55 1045.9 173.512C1045.62 174.054 1045.48 174.888 1045.48 176.014V182.731H1041.78V168.677H1045.28V171.127C1045.85 170.19 1046.34 169.55 1046.77 169.206C1047.45 168.63 1048.35 168.342 1049.45 168.342C1049.52 168.342 1049.57 168.346 1049.61 168.355C1049.67 168.355 1049.77 168.359 1049.94 168.368V172.133C1049.71 172.107 1049.5 172.09 1049.32 172.081C1049.14 172.072 1048.99 172.068 1048.88 172.068ZM1052.63 170.199C1053.6 168.961 1055.27 168.342 1057.63 168.342C1059.17 168.342 1060.54 168.647 1061.73 169.257C1062.93 169.868 1063.53 171.019 1063.53 172.713V179.16C1063.53 179.607 1063.54 180.148 1063.55 180.784C1063.58 181.266 1063.65 181.592 1063.77 181.764C1063.89 181.936 1064.07 182.078 1064.31 182.19V182.731H1060.32C1060.2 182.448 1060.13 182.181 1060.08 181.932C1060.04 181.683 1060.01 181.399 1059.98 181.081C1059.47 181.631 1058.89 182.099 1058.23 182.486C1057.44 182.942 1056.54 183.17 1055.55 183.17C1054.27 183.17 1053.22 182.809 1052.39 182.087C1051.56 181.356 1051.15 180.324 1051.15 178.992C1051.15 177.264 1051.82 176.014 1053.15 175.24C1053.88 174.819 1054.95 174.518 1056.37 174.337L1057.62 174.183C1058.3 174.097 1058.79 173.989 1059.08 173.86C1059.6 173.637 1059.87 173.289 1059.87 172.816C1059.87 172.24 1059.66 171.845 1059.26 171.63C1058.86 171.406 1058.28 171.295 1057.51 171.295C1056.64 171.295 1056.02 171.509 1055.66 171.939C1055.4 172.257 1055.23 172.687 1055.15 173.229H1051.6C1051.68 171.999 1052.02 170.989 1052.63 170.199ZM1055.37 180.075C1055.71 180.359 1056.13 180.501 1056.63 180.501C1057.42 180.501 1058.15 180.269 1058.81 179.804C1059.48 179.34 1059.83 178.493 1059.85 177.264V175.898C1059.62 176.044 1059.38 176.164 1059.14 176.259C1058.91 176.345 1058.59 176.426 1058.18 176.504L1057.35 176.658C1056.58 176.796 1056.02 176.963 1055.69 177.161C1055.12 177.496 1054.84 178.016 1054.84 178.721C1054.84 179.349 1055.01 179.8 1055.37 180.075ZM1070.77 185.194C1071.17 185.529 1071.83 185.697 1072.77 185.697C1074.1 185.697 1074.98 185.254 1075.43 184.369C1075.72 183.801 1075.87 182.847 1075.87 181.506V180.604C1075.51 181.205 1075.14 181.657 1074.73 181.958C1074 182.516 1073.05 182.796 1071.88 182.796C1070.08 182.796 1068.63 182.164 1067.55 180.9C1066.48 179.628 1065.94 177.909 1065.94 175.743C1065.94 173.654 1066.46 171.901 1067.5 170.482C1068.54 169.055 1070.01 168.342 1071.92 168.342C1072.63 168.342 1073.24 168.449 1073.76 168.664C1074.66 169.034 1075.38 169.713 1075.93 170.701V168.677H1079.5V182.009C1079.5 183.823 1079.2 185.19 1078.59 186.109C1077.54 187.691 1075.53 188.482 1072.55 188.482C1070.76 188.482 1069.29 188.129 1068.16 187.424C1067.02 186.72 1066.39 185.667 1066.27 184.266H1070.27C1070.37 184.695 1070.54 185.005 1070.77 185.194ZM1070.15 177.935C1070.65 179.121 1071.55 179.714 1072.84 179.714C1073.7 179.714 1074.42 179.392 1075.02 178.747C1075.61 178.094 1075.9 177.058 1075.9 175.64C1075.9 174.307 1075.62 173.293 1075.05 172.597C1074.5 171.901 1073.74 171.552 1072.8 171.552C1071.51 171.552 1070.62 172.158 1070.13 173.37C1069.87 174.015 1069.74 174.81 1069.74 175.756C1069.74 176.572 1069.88 177.299 1070.15 177.935ZM1094.97 178.605C1094.88 179.439 1094.45 180.286 1093.67 181.145C1092.47 182.512 1090.78 183.195 1088.62 183.195C1086.83 183.195 1085.25 182.619 1083.89 181.468C1082.52 180.316 1081.84 178.442 1081.84 175.846C1081.84 173.413 1082.45 171.548 1083.68 170.25C1084.92 168.952 1086.52 168.303 1088.49 168.303C1089.66 168.303 1090.71 168.522 1091.65 168.961C1092.59 169.399 1093.36 170.091 1093.97 171.037C1094.52 171.87 1094.88 172.837 1095.04 173.938C1095.13 174.582 1095.17 175.511 1095.16 176.723H1085.54C1085.59 178.132 1086.03 179.121 1086.86 179.688C1087.37 180.041 1087.98 180.217 1088.7 180.217C1089.45 180.217 1090.07 180.002 1090.54 179.572C1090.8 179.34 1091.02 179.018 1091.22 178.605H1094.97ZM1091.34 174.299C1091.28 173.327 1090.98 172.592 1090.45 172.094C1089.92 171.587 1089.27 171.333 1088.49 171.333C1087.64 171.333 1086.98 171.6 1086.5 172.133C1086.04 172.666 1085.75 173.388 1085.63 174.299H1091.34Z" fill="#F5FFFD"/>
<path opacity="0.69" d="M467.63 124.907V94.3848H500.755" stroke="#6752F7" stroke-width="1.51422" stroke-dasharray="3.03 3.03"/>
<path opacity="0.69" d="M608.662 124.907V94.3848H574.166" stroke="#6752F7" stroke-width="1.51422" stroke-dasharray="3.03 3.03"/>
<path opacity="0.69" d="M608.661 229.625V260.147H580.344" stroke="#6752F7" stroke-width="1.51422" stroke-dasharray="3.03 3.03"/>
<path opacity="0.69" d="M468.371 229.625V260.147H496.688" stroke="#6752F7" stroke-width="1.51422" stroke-dasharray="3.03 3.03"/>
<path d="M614.615 135.942V134.63L613.48 133.974L540.262 91.7024L539.127 91.0467L537.991 91.7024L464.774 133.974L463.638 134.63V135.942L463.638 220.486V221.797L464.774 222.453L537.991 264.725L539.127 265.38L540.262 264.725L613.48 222.453L614.615 221.797V220.486V135.942Z" fill="#474C59" stroke="#474C59" stroke-width="4.54267"/>
<path d="M465.909 135.941L539.127 178.213L539.127 262.757L465.909 220.485L465.909 135.941Z" fill="url(#paint4_linear_216_1884)"/>
<rect width="84.5442" height="84.5442" transform="matrix(0.866025 -0.5 2.20305e-08 1 539.126 178.213)" fill="url(#paint5_linear_216_1884)"/>
<path d="M539.126 93.6694L612.344 135.942L539.126 178.214L465.909 135.942L539.126 93.6694Z" fill="url(#paint6_linear_216_1884)"/>
<path d="M485.47 182.665C485.981 182.96 486.397 183.135 486.718 183.19C487.326 183.29 487.632 183.001 487.638 182.323C487.641 181.928 487.493 181.535 487.195 181.144C486.896 180.759 486.425 180.3 485.783 179.766L484.687 178.847C483.609 177.941 482.865 177.204 482.455 176.634C481.76 175.677 481.417 174.611 481.427 173.434C481.435 172.361 481.781 171.664 482.463 171.344C483.145 171.024 484.141 171.242 485.451 171.999C486.545 172.63 487.474 173.505 488.239 174.622C489.008 175.736 489.406 176.941 489.433 178.237L487.349 177.033C487.317 176.29 487.049 175.621 486.544 175.024C486.208 174.628 485.788 174.285 485.286 173.995C484.727 173.673 484.28 173.545 483.944 173.613C483.609 173.681 483.439 173.948 483.435 174.414C483.432 174.843 483.594 175.257 483.921 175.659C484.131 175.922 484.58 176.347 485.269 176.935L487.054 178.464C487.836 179.134 488.425 179.766 488.822 180.359C489.437 181.281 489.74 182.276 489.731 183.344C489.722 184.439 489.351 185.14 488.617 185.446C487.888 185.75 486.861 185.52 485.537 184.755C484.185 183.974 483.124 183.005 482.355 181.848C481.586 180.685 481.207 179.48 481.217 178.233L483.288 179.428C483.349 180.014 483.475 180.498 483.665 180.88C484.014 181.576 484.615 182.172 485.47 182.665ZM495.51 183.747C495.344 183.221 495.015 182.816 494.522 182.531C493.949 182.2 493.562 182.192 493.361 182.507C493.251 182.688 493.194 183.02 493.19 183.503L493.147 188.838L491.111 187.663L491.184 178.814L493.135 179.941L493.124 181.234C493.377 180.917 493.614 180.724 493.837 180.656C494.229 180.534 494.735 180.652 495.355 181.01C495.942 181.349 496.415 181.772 496.774 182.279C497.063 182.723 497.281 183.206 497.428 183.727C497.695 183.358 498.024 183.164 498.416 183.145C498.831 183.14 499.292 183.283 499.8 183.576C500.138 183.771 500.47 184.04 500.798 184.381C501.125 184.723 501.421 185.161 501.686 185.695C501.899 186.128 502.042 186.592 502.113 187.085C502.158 187.411 502.178 187.861 502.173 188.435L502.113 194.015L500.056 192.827L500.103 187.183C500.105 186.847 500.061 186.543 499.969 186.272C499.793 185.757 499.466 185.361 498.988 185.085C498.433 184.765 498.049 184.81 497.833 185.219C497.723 185.438 497.666 185.746 497.663 186.142L497.619 191.42L495.598 190.253L495.641 184.975C495.645 184.449 495.602 184.04 495.51 183.747ZM504.333 187.354C504.87 186.879 505.784 187.015 507.076 187.761C507.916 188.246 508.661 188.869 509.311 189.631C509.96 190.393 510.281 191.308 510.272 192.376L510.238 196.442C510.236 196.724 510.238 197.069 510.244 197.475C510.256 197.787 510.294 198.016 510.359 198.162C510.424 198.309 510.522 198.455 510.652 198.602L510.65 198.943L508.466 197.683C508.407 197.468 508.366 197.276 508.344 197.105C508.321 196.934 508.304 196.745 508.292 196.536C508.012 196.723 507.69 196.834 507.326 196.869C506.892 196.907 506.403 196.769 505.858 196.454C505.163 196.053 504.59 195.493 504.138 194.775C503.691 194.054 503.471 193.273 503.478 192.433C503.487 191.343 503.857 190.764 504.589 190.696C504.99 190.661 505.579 190.81 506.354 191.144L507.038 191.441C507.41 191.601 507.676 191.686 507.836 191.697C508.123 191.721 508.268 191.584 508.271 191.286C508.274 190.923 508.166 190.61 507.946 190.347C507.731 190.081 507.412 189.826 506.99 189.582C506.516 189.308 506.179 189.25 505.979 189.407C505.837 189.527 505.741 189.744 505.691 190.058L503.754 188.94C503.803 188.189 503.996 187.66 504.333 187.354ZM505.775 194.446C505.962 194.733 506.191 194.955 506.463 195.113C506.895 195.362 507.293 195.445 507.657 195.361C508.026 195.279 508.22 194.855 508.241 194.088L508.248 193.226C508.12 193.245 507.991 193.246 507.859 193.23C507.731 193.211 507.555 193.161 507.329 193.079L506.878 192.917C506.454 192.759 506.151 192.69 505.966 192.709C505.655 192.742 505.497 192.98 505.493 193.425C505.49 193.821 505.584 194.161 505.775 194.446ZM515.924 195.231C515.116 194.764 514.571 194.755 514.289 195.202C514.132 195.454 514.05 195.935 514.044 196.646L514.009 200.883L511.988 199.716L512.061 190.851L513.976 191.957L513.964 193.502C514.278 193.09 514.552 192.842 514.784 192.758C515.162 192.612 515.652 192.712 516.253 193.059C516.291 193.081 516.321 193.101 516.345 193.12C516.373 193.136 516.431 193.173 516.521 193.23L516.501 195.605C516.375 195.515 516.262 195.439 516.163 195.377C516.065 195.315 515.985 195.266 515.924 195.231ZM521.158 203.351L521.144 205.084L520.192 204.575C519.244 204.066 518.597 203.502 518.253 202.884C518.03 202.488 517.921 202.013 517.925 201.46L517.97 196.003L516.899 195.385L516.913 193.734L517.983 194.352L518.004 191.88L519.99 193.027L519.97 195.499L521.216 196.219L521.203 197.87L519.956 197.15L519.918 201.835C519.915 202.198 519.953 202.449 520.032 202.587C520.111 202.72 520.355 202.904 520.763 203.14C520.824 203.175 520.888 203.212 520.953 203.25C521.024 203.285 521.092 203.319 521.158 203.351ZM479.644 199.233C478.862 199.604 477.868 199.441 476.661 198.744C475.168 197.882 473.999 196.652 473.153 195.052C472.308 193.447 471.893 191.677 471.909 189.741C471.926 187.649 472.425 186.316 473.407 185.744C474.26 185.245 475.339 185.373 476.645 186.126C478.391 187.135 479.663 188.534 480.46 190.323C480.9 191.323 481.133 192.207 481.16 192.974L478.991 191.722C478.855 191.066 478.677 190.528 478.459 190.108C478.069 189.359 477.486 188.762 476.712 188.314C475.923 187.859 475.298 187.868 474.836 188.343C474.375 188.812 474.138 189.718 474.127 191.063C474.116 192.408 474.347 193.554 474.821 194.503C475.299 195.449 475.909 196.137 476.651 196.565C477.412 197.004 477.994 197.052 478.398 196.707C478.621 196.526 478.808 196.168 478.959 195.634L481.107 196.874C480.908 198.072 480.421 198.858 479.644 199.233ZM489.04 197.777C489.68 199.089 489.995 200.385 489.984 201.664C489.974 202.966 489.641 203.893 488.985 204.446C488.329 204.993 487.342 204.886 486.022 204.124C484.703 203.363 483.723 202.334 483.083 201.038C482.442 199.737 482.127 198.436 482.138 197.134C482.148 195.855 482.482 194.933 483.137 194.369C483.793 193.805 484.781 193.904 486.1 194.666C487.419 195.428 488.399 196.465 489.04 197.777ZM486.077 196.622C485.49 196.283 485.035 196.263 484.712 196.561C484.393 196.856 484.23 197.449 484.223 198.338C484.216 199.227 484.367 200.004 484.678 200.668C484.993 201.335 485.444 201.838 486.031 202.177C486.618 202.516 487.071 202.535 487.39 202.234C487.708 201.933 487.871 201.338 487.878 200.449C487.886 199.559 487.734 198.785 487.423 198.127C487.113 197.462 486.664 196.961 486.077 196.622ZM495.064 201.852C494.383 201.458 493.913 201.522 493.654 202.043C493.52 202.319 493.45 202.731 493.446 203.279L493.406 208.077L491.406 206.922L491.479 198.074L493.416 199.192L493.405 200.485C493.667 200.179 493.914 199.992 494.146 199.924C494.562 199.805 495.087 199.928 495.721 200.294C496.514 200.752 497.16 201.368 497.659 202.14C498.162 202.91 498.409 203.851 498.4 204.962L498.351 210.932L496.294 209.744L496.338 204.352C496.342 203.886 496.291 203.497 496.185 203.185C495.992 202.616 495.618 202.171 495.064 201.852ZM503.739 212.384L503.724 214.116L502.773 213.608C501.824 213.098 501.178 212.534 500.834 211.916C500.611 211.52 500.501 211.046 500.506 210.493L500.551 205.036L499.48 204.418L499.494 202.767L500.564 203.385L500.584 200.912L502.571 202.059L502.55 204.531L503.797 205.251L503.784 206.902L502.537 206.182L502.498 210.867C502.495 211.23 502.533 211.481 502.613 211.619C502.692 211.752 502.935 211.936 503.344 212.172C503.405 212.207 503.468 212.244 503.534 212.282C503.605 212.317 503.673 212.351 503.739 212.384ZM508.929 210.281C508.121 209.815 507.576 209.806 507.294 210.253C507.137 210.505 507.055 210.986 507.049 211.696L507.014 215.934L504.993 214.767L505.066 205.902L506.981 207.008L506.969 208.553C507.283 208.141 507.557 207.893 507.789 207.809C508.167 207.663 508.657 207.763 509.258 208.11C509.296 208.132 509.326 208.152 509.35 208.171C509.378 208.187 509.436 208.224 509.526 208.281L509.506 210.656C509.38 210.566 509.267 210.49 509.168 210.428C509.07 210.365 508.99 210.317 508.929 210.281ZM510.988 210.286C511.525 209.811 512.439 209.947 513.731 210.692C514.571 211.177 515.316 211.801 515.966 212.563C516.615 213.325 516.936 214.24 516.927 215.308L516.894 219.374C516.891 219.656 516.893 220 516.899 220.407C516.911 220.719 516.949 220.948 517.014 221.094C517.079 221.24 517.177 221.387 517.308 221.533L517.305 221.875L515.121 220.614C515.062 220.4 515.021 220.208 514.999 220.037C514.976 219.866 514.959 219.676 514.947 219.468C514.667 219.655 514.345 219.766 513.982 219.801C513.547 219.839 513.058 219.701 512.513 219.386C511.818 218.985 511.245 218.425 510.793 217.707C510.346 216.986 510.126 216.205 510.133 215.364C510.142 214.275 510.512 213.696 511.244 213.628C511.645 213.593 512.234 213.742 513.009 214.075L513.693 214.372C514.065 214.532 514.331 214.618 514.491 214.628C514.779 214.653 514.924 214.516 514.926 214.218C514.929 213.855 514.821 213.541 514.601 213.278C514.386 213.013 514.068 212.758 513.645 212.514C513.171 212.24 512.834 212.182 512.634 212.339C512.492 212.458 512.396 212.675 512.346 212.99L510.409 211.871C510.458 211.12 510.651 210.592 510.988 210.286ZM512.43 217.377C512.617 217.665 512.846 217.887 513.118 218.044C513.55 218.294 513.948 218.376 514.312 218.292C514.681 218.211 514.876 217.787 514.896 217.02L514.903 216.157C514.776 216.176 514.646 216.178 514.514 216.162C514.387 216.143 514.21 216.092 513.984 216.011L513.533 215.848C513.109 215.691 512.806 215.622 512.622 215.641C512.31 215.674 512.152 215.912 512.149 216.357C512.145 216.752 512.239 217.093 512.43 217.377ZM525.353 220.81L523.296 219.622C523.261 219.27 523.167 218.916 523.015 218.561C522.792 218.073 522.444 217.692 521.97 217.418C521.293 217.028 520.828 217.148 520.572 217.78C520.438 218.116 520.367 218.626 520.362 219.309C520.356 219.96 520.418 220.521 520.546 220.993C520.779 221.868 521.227 222.497 521.889 222.879C522.359 223.15 522.693 223.197 522.893 223.018C523.093 222.839 523.216 222.528 523.262 222.086L525.311 223.27C525.259 223.947 525.032 224.487 524.633 224.888C523.995 225.539 523.059 225.508 521.824 224.795C520.589 224.082 519.684 223.134 519.109 221.952C518.533 220.77 518.251 219.504 518.262 218.154C518.275 216.631 518.606 215.632 519.256 215.157C519.907 214.683 520.798 214.772 521.929 215.426C522.892 215.981 523.676 216.685 524.283 217.536C524.894 218.39 525.25 219.481 525.353 220.81ZM530.222 227.674L530.208 229.406L529.256 228.898C528.308 228.388 527.661 227.824 527.317 227.206C527.094 226.81 526.985 226.336 526.989 225.783L527.034 220.326L525.963 219.708L525.977 218.057L527.047 218.675L527.068 216.202L529.054 217.349L529.034 219.822L530.28 220.541L530.267 222.192L529.02 221.473L528.982 226.157C528.979 226.52 529.017 226.771 529.096 226.909C529.175 227.042 529.419 227.226 529.827 227.462C529.888 227.498 529.952 227.534 530.017 227.572C530.088 227.607 530.156 227.641 530.222 227.674Z" fill="#444444"/>
<path fill-rule="evenodd" clip-rule="evenodd" d="M555.682 123.105C556.848 122.454 558.734 122.459 559.896 123.118L565.633 126.369C566.795 127.027 566.792 128.089 565.626 128.741L562.256 130.624C563.271 131.648 564.052 132.724 564.598 133.829L569.358 133.843C571.004 133.848 572.336 134.603 572.333 135.529L572.319 140.103C572.316 141.029 570.98 141.776 569.334 141.771L564.574 141.757C564.021 142.858 563.234 143.93 562.213 144.948L565.572 146.851C566.733 147.51 566.73 148.571 565.565 149.223L559.808 152.44C558.643 153.091 556.756 153.085 555.594 152.427L552.235 150.523C550.42 151.091 548.51 151.527 546.549 151.83L546.541 154.509C546.538 155.435 545.202 156.182 543.556 156.177L535.429 156.153C533.784 156.148 532.452 155.393 532.455 154.467L532.463 151.788C530.503 151.473 528.596 151.026 526.784 150.447L523.414 152.331C522.248 152.982 520.361 152.977 519.2 152.318L513.463 149.067C512.301 148.409 512.304 147.347 513.47 146.695L516.84 144.812C515.825 143.788 515.044 142.712 514.498 141.607L509.738 141.593C508.092 141.588 506.76 140.833 506.763 139.907L506.777 135.333C506.779 134.407 508.116 133.66 509.761 133.665L514.522 133.679C515.075 132.578 515.862 131.506 516.883 130.488L513.524 128.585C512.362 127.926 512.366 126.865 513.531 126.213L519.287 122.996C520.453 122.345 522.34 122.35 523.502 123.009L526.861 124.913C528.676 124.345 530.586 123.909 532.547 123.606L532.555 120.927C532.558 120.001 533.894 119.254 535.54 119.259L543.666 119.283C545.312 119.288 546.644 120.043 546.641 120.969L546.633 123.648C548.592 123.963 550.5 124.41 552.312 124.989L555.682 123.105ZM532.186 133.546C536.265 131.266 542.869 131.285 546.935 133.59C551.001 135.894 550.99 139.61 546.91 141.89C542.83 144.17 536.227 144.151 532.161 141.846C528.095 139.542 528.106 135.826 532.186 133.546Z" fill="#6E7CA5"/>
<defs>
<filter id="filter0_d_216_1884" x="870.652" y="0.614524" width="228.56" height="131.609" filterUnits="userSpaceOnUse" color-interpolation-filters="sRGB">
<feFlood flood-opacity="0" result="BackgroundImageFix"/>
<feColorMatrix in="SourceAlpha" type="matrix" values="0 0 0 0 0 0 0 0 0 0 0 0 0 0 0 0 0 0 127 0" result="hardAlpha"/>
<feOffset dy="6.60155"/>
<feGaussianBlur stdDeviation="9.90233"/>
<feComposite in2="hardAlpha" operator="out"/>
<feColorMatrix type="matrix" values="0 0 0 0 0 0 0 0 0 0 0 0 0 0 0 0 0 0 0.25 0"/>
<feBlend mode="normal" in2="BackgroundImageFix" result="effect1_dropShadow_216_1884"/>
<feBlend mode="normal" in="SourceGraphic" in2="effect1_dropShadow_216_1884" result="shape"/>
</filter>
<filter id="filter1_d_216_1884" x="818.48" y="227.677" width="228.56" height="131.609" filterUnits="userSpaceOnUse" color-interpolation-filters="sRGB">
<feFlood flood-opacity="0" result="BackgroundImageFix"/>
<feColorMatrix in="SourceAlpha" type="matrix" values="0 0 0 0 0 0 0 0 0 0 0 0 0 0 0 0 0 0 127 0" result="hardAlpha"/>
<feOffset dy="6.60155"/>
<feGaussianBlur stdDeviation="9.90233"/>
<feComposite in2="hardAlpha" operator="out"/>
<feColorMatrix type="matrix" values="0 0 0 0 0 0 0 0 0 0 0 0 0 0 0 0 0 0 0.25 0"/>
<feBlend mode="normal" in2="BackgroundImageFix" result="effect1_dropShadow_216_1884"/>
<feBlend mode="normal" in="SourceGraphic" in2="effect1_dropShadow_216_1884" result="shape"/>
</filter>
<linearGradient id="paint0_linear_216_1884" x1="554.565" y1="174.929" x2="974.213" y2="174.929" gradientUnits="userSpaceOnUse">
<stop offset="5.60229e-10" stop-color="#6752F8" stop-opacity="0"/>
<stop offset="0.43598" stop-color="#6752F8"/>
<stop offset="1" stop-color="#6752F8" stop-opacity="0"/>
</linearGradient>
<linearGradient id="paint1_linear_216_1884" x1="76.8215" y1="174.929" x2="446.385" y2="174.929" gradientUnits="userSpaceOnUse">
<stop stop-color="#6752F8" stop-opacity="0"/>
<stop offset="0.579235" stop-color="#6752F8"/>
</linearGradient>
<linearGradient id="paint2_linear_216_1884" x1="614.586" y1="173.948" x2="895.731" y2="173.948" gradientUnits="userSpaceOnUse">
<stop offset="0.0048754" stop-color="#6752F8" stop-opacity="0"/>
<stop offset="0.516793" stop-color="#6752F8"/>
<stop offset="1" stop-color="#6752F8" stop-opacity="0"/>
</linearGradient>
<linearGradient id="paint3_linear_216_1884" x1="592.665" y1="288.573" x2="859.924" y2="288.573" gradientUnits="userSpaceOnUse">
<stop stop-color="#6752F8" stop-opacity="0"/>
<stop offset="0.367518" stop-color="#6752F8"/>
<stop offset="1" stop-color="#6752F8" stop-opacity="0"/>
</linearGradient>
<linearGradient id="paint4_linear_216_1884" x1="506.413" y1="244.58" x2="506.413" y2="159.614" gradientUnits="userSpaceOnUse">
<stop stop-color="#CAD1E7"/>
<stop offset="1" stop-color="#B4BDD8"/>
</linearGradient>
<linearGradient id="paint5_linear_216_1884" x1="42.2721" y1="0.845438" x2="8.45442" y2="68.4808" gradientUnits="userSpaceOnUse">
<stop stop-color="#CFD8EF"/>
<stop offset="1" stop-color="#D5DAE9"/>
</linearGradient>
<linearGradient id="paint6_linear_216_1884" x1="539.04" y1="93.6694" x2="506.62" y2="163.068" gradientUnits="userSpaceOnUse">
<stop stop-color="#EDF1FD"/>
<stop offset="1" stop-color="#E1E5F1"/>
</linearGradient>
</defs>
</svg>
