<svg width="116" height="68" viewBox="0 0 116 68" fill="none" xmlns="http://www.w3.org/2000/svg">
<path d="M83.4252 24.5107C83.4252 26.9498 82.0599 29.0701 80.0518 30.1489C80.2528 30.7699 80.3614 31.4326 80.3614 32.1205C80.3614 35.653 77.4978 38.5167 73.9653 38.5167C70.4328 38.5167 67.5691 35.653 67.5691 32.1205C67.5691 29.6814 68.9344 27.5611 70.9425 26.4823C70.7414 25.8613 70.6328 25.1987 70.6328 24.5107C70.6328 20.9782 73.4965 18.1145 77.029 18.1145C80.5615 18.1145 83.4252 20.9782 83.4252 24.5107Z" fill="white"/>
<path d="M34.8358 33.4762C34.8358 37 31.9863 39.8583 28.4658 39.8724C31.9863 39.8865 34.8358 42.7447 34.8358 46.2685C34.8358 49.801 31.9721 52.6647 28.4396 52.6647C24.9071 52.6647 22.0435 49.801 22.0435 46.2685C22.0435 42.7447 24.893 39.8865 28.4135 39.8724C24.893 39.8583 22.0435 37 22.0435 33.4762C22.0435 29.9437 24.9071 27.0801 28.4396 27.0801C31.9721 27.0801 34.8358 29.9437 34.8358 33.4762Z" fill="white"/>
<path d="M41.2319 48.8954C44.7644 48.8954 47.628 46.0317 47.628 42.4992C47.628 38.9667 44.7644 36.103 41.2319 36.103C37.6994 36.103 34.8357 38.9667 34.8357 42.4992C34.8357 46.0317 37.6994 48.8954 41.2319 48.8954Z" fill="white"/>
<path d="M51.4746 28.8279H67.5688V48.2056H51.4746V28.8279Z" fill="white"/>
<path d="M88.8532 41.0531C92.3857 41.0531 95.2494 38.1894 95.2494 34.6569C95.2494 31.1244 92.3857 28.2607 88.8532 28.2607C85.3207 28.2607 82.457 31.1244 82.457 34.6569C82.457 38.1894 85.3207 41.0531 88.8532 41.0531Z" fill="white"/>
<path d="M44.0124 43.2128C44.0124 44.5935 45.1317 45.7128 46.5124 45.7128H52.9558C53.6189 45.7128 54.2548 45.4494 54.7236 44.9805C55.1925 44.5117 55.4558 43.8758 55.4558 43.2128L55.4558 26.7512C55.8414 27.6348 56.7227 28.2524 57.7483 28.2524H59.6974V38.0062C59.6974 38.0766 59.7003 38.1464 59.706 38.2153C59.9046 42.4519 63.4796 45.7128 67.7204 45.7128H73.2433C74.6241 45.7128 75.7433 44.5935 75.7433 43.2128V38.7865C78.1945 43.2716 82.9553 46.3137 88.4267 46.3137C96.404 46.3137 102.871 39.8468 102.871 31.8695C102.871 26.2779 99.6935 21.4284 95.0459 19.0279H99.1658C100.547 19.0279 101.666 17.9086 101.666 16.5279V10.3913C101.666 9.01057 100.547 7.89128 99.1658 7.89128H77.6875C76.3068 7.89128 75.1875 9.01057 75.1875 10.3913V16.5279C75.1875 17.9086 76.3068 19.0279 77.6875 19.0279H81.8088C81.0029 19.4439 80.2413 19.9334 79.533 20.4875C78.5515 21.2554 78.2853 22.6289 78.9091 23.7078L81.8838 28.8531C81.9941 29.0439 82.1277 29.2171 82.2802 29.3695H76.4825C75.1018 29.3695 73.9825 30.4888 73.9825 31.8695C73.9825 32.905 74.0915 33.9151 74.2986 34.8888C73.978 34.7394 73.6204 34.6559 73.2433 34.6559H71.1409V28.2524H73.0899C74.4706 28.2524 75.5899 27.1331 75.5899 25.7524V19.9275C75.5899 18.5468 74.4706 17.4275 73.0899 17.4275H71.1409V10.492C71.1409 9.59901 70.6645 8.7738 69.8912 8.32717C69.1179 7.88053 68.1651 7.88031 67.3915 8.32658L60.9481 12.044C60.1742 12.4905 59.6974 13.316 59.6974 14.2095V17.4275H57.7483C56.6165 17.4275 55.6603 18.1797 55.3524 19.2114C55.2614 18.9056 55.1135 18.6243 54.9209 18.3798C55.8612 17.2274 56.4251 15.7559 56.4251 14.1527C56.4251 10.4573 53.4294 7.46167 49.7341 7.46167C46.0387 7.46167 43.0431 10.4573 43.0431 14.1527C43.0431 15.756 43.607 17.2275 44.5473 18.3799C44.2025 18.8183 44.0124 19.362 44.0124 19.9254L44.0124 43.2128ZM84.8123 31.8695C84.8123 31.1791 84.5325 30.5541 84.08 30.1017C84.7383 30.0933 85.3723 29.825 85.8382 29.347C86.4977 28.6705 87.4115 28.2552 88.4267 28.2552C90.4228 28.2552 92.041 29.8734 92.041 31.8695C92.041 33.8657 90.4228 35.4839 88.4267 35.4839C86.4305 35.4839 84.8123 33.8657 84.8123 31.8695ZM28.3151 28.2561C28.3414 28.2569 28.3678 28.2573 28.3943 28.2573H32.5339C32.2051 28.6805 32.0094 29.2123 32.0094 29.7897L32.0094 31.8695C32.0094 33.8657 30.3912 35.4839 28.395 35.4839C26.3989 35.4839 24.7807 33.8657 24.7807 31.8695C24.7807 29.9001 26.3559 28.2986 28.3151 28.2561ZM42.1069 28.0219C42.0508 27.9658 41.9922 27.9126 41.9315 27.8624C42.6237 27.4178 43.0824 26.6411 43.0824 25.7573V19.9275C43.0824 18.5468 41.9631 17.4275 40.5824 17.4275H28.4984C28.4641 17.4261 28.4296 17.4254 28.395 17.4254C20.4177 17.4254 13.9509 23.8923 13.9509 31.8695C13.9509 36.9771 16.6019 41.4655 20.603 44.0338H15.7512C14.3705 44.0338 13.2512 45.1531 13.2512 46.5338C13.2512 54.8975 20.0313 61.6776 28.395 61.6776C36.7587 61.6776 43.5388 54.8975 43.5388 46.5338C43.5388 45.1531 42.4195 44.0338 41.0388 44.0338H36.1871C40.1882 41.4655 42.8392 36.9771 42.8392 31.8695L42.8392 29.7897C42.8392 29.1267 42.5758 28.4908 42.1069 28.0219ZM24.4225 46.5338C24.4225 46.2494 24.375 45.976 24.2875 45.7213C25.5895 46.1068 26.9681 46.3137 28.395 46.3137C29.822 46.3137 31.2006 46.1068 32.5025 45.7213C32.415 45.976 32.3675 46.2494 32.3675 46.5338C32.3675 48.7277 30.589 50.5063 28.395 50.5063C26.2011 50.5063 24.4225 48.7277 24.4225 46.5338Z" fill="black" stroke="white" stroke-width="5" stroke-linejoin="round"/>
</svg>
