<svg width="115" height="67" viewBox="0 0 115 67" fill="none" xmlns="http://www.w3.org/2000/svg">
<path fill-rule="evenodd" clip-rule="evenodd" d="M52.4256 47.7128H45.9821C45.7963 47.7128 45.613 47.7027 45.4325 47.6829C44.6009 56.6541 37.053 63.6776 27.8647 63.6776C18.1203 63.6776 10.2209 55.7782 10.2209 46.0338C10.2209 43.6781 11.8501 41.7028 14.0432 41.1733C12.0768 38.406 10.9206 35.0228 10.9206 31.3695C10.9206 22.0115 18.5068 14.4254 27.8648 14.4254C27.9137 14.4254 27.9624 14.4261 28.011 14.4275H40.045C40.0237 14.172 40.0128 13.9136 40.0128 13.6527C40.0128 8.57662 44.1277 4.46167 49.2038 4.46167C53.1702 4.46167 56.5497 6.97413 57.8378 10.4944C58.2073 10.0542 58.6552 9.67469 59.1685 9.37856L65.612 5.66112C67.159 4.76858 69.0647 4.76903 70.6113 5.6623C71.4921 6.17102 72.1803 6.92531 72.6095 7.81037C73.399 6.08779 75.1384 4.89128 77.1573 4.89128H98.6355C101.397 4.89128 103.636 7.12986 103.636 9.89128V16.0279C103.636 17.9786 102.518 19.6684 100.889 20.4925C103.356 23.4356 104.841 27.2291 104.841 31.3695C104.841 40.7275 97.2544 48.3137 87.8964 48.3137C83.903 48.3137 80.2323 46.9322 77.336 44.6211C76.5861 46.4358 74.7987 47.7128 72.7131 47.7128H67.1901L52.4256 47.7128Z" fill="white"/>
<path d="M53.3948 13.6527C53.3948 15.9673 51.5184 17.8437 49.2038 17.8437C46.8892 17.8437 45.0128 15.9673 45.0128 13.6527C45.0128 11.338 46.8892 9.46167 49.2038 9.46167C51.5184 9.46167 53.3948 11.338 53.3948 13.6527Z" fill="black"/>
<path d="M45.9821 42.7128L45.9821 19.4254H52.4256L52.4256 42.7128H45.9821Z" fill="black"/>
<path d="M61.6671 37.5062V25.2524H57.2181V19.4275H61.6671V13.7095L68.1106 9.99203V19.4275H72.5597V25.2524H68.1106V36.6559H72.7131V42.7128H67.1901C64.1943 42.7128 61.7556 40.3959 61.6695 37.5062H61.6671Z" fill="black"/>
<path d="M98.6355 9.89128H77.1573V16.0279H98.6355V9.89128Z" fill="black"/>
<path d="M83.5178 27.1019L80.5431 21.9565C82.5704 20.3706 85.123 19.4254 87.8964 19.4254C94.493 19.4254 99.8406 24.773 99.8406 31.3695C99.8406 37.9661 94.493 43.3137 87.8964 43.3137C81.2998 43.3137 75.9523 37.9661 75.9523 31.3695H81.7821C81.7821 34.7464 84.5196 37.4839 87.8964 37.4839C91.2733 37.4839 94.0107 34.7464 94.0107 31.3695C94.0107 27.9927 91.2733 25.2552 87.8964 25.2552C86.1798 25.2552 84.6284 25.9626 83.5178 27.1019Z" fill="black"/>
<path d="M27.864 25.2552C24.4875 25.2556 21.7504 27.9929 21.7504 31.3695C21.7504 34.7464 24.4879 37.4839 27.8648 37.4839C31.2416 37.4839 33.9791 34.7464 33.9791 31.3695L33.9791 29.2897H39.8089L39.8089 31.3695C39.8089 37.9661 34.4613 43.3137 27.8648 43.3137C21.2682 43.3137 15.9206 37.9661 15.9206 31.3695C15.9206 24.773 21.2682 19.4254 27.8648 19.4254V19.4275H40.0521V25.2573H27.864V25.2552Z" fill="black"/>
<path d="M21.3922 46.0338C21.3922 49.6084 24.2901 52.5063 27.8647 52.5063C31.4394 52.5063 34.3372 49.6084 34.3372 46.0338H40.5085C40.5085 53.0168 34.8477 58.6776 27.8647 58.6776C20.8818 58.6776 15.2209 53.0168 15.2209 46.0338H21.3922Z" fill="black"/>
</svg>
