<svg width="86" height="85" viewBox="0 0 86 85" fill="none" xmlns="http://www.w3.org/2000/svg">
<mask id="path-1-inside-1_216_2145" fill="white">
<rect x="0.530273" width="85" height="85" rx="2"/>
</mask>
<rect x="0.530273" width="85" height="85" rx="2" fill="#F5FFFD" stroke="black" stroke-width="6" mask="url(#path-1-inside-1_216_2145)"/>
<path fill-rule="evenodd" clip-rule="evenodd" d="M42.6004 20.4943C41.9379 20.4943 41.4008 21.0314 41.4008 21.6939C41.4008 22.3564 41.9379 22.8934 42.6004 22.8934C43.2629 22.8934 43.7999 22.3564 43.7999 21.6939C43.7999 21.0314 43.2629 20.4943 42.6004 20.4943ZM36.6318 21.0991C36.9304 18.0659 39.4886 15.6962 42.6004 15.6962C45.7121 15.6962 48.2704 18.0659 48.569 21.0991L62.9693 29.1993C63.7247 29.6242 64.1922 30.4235 64.1922 31.2903V47.3834C66.3105 48.3089 67.7908 50.4226 67.7908 52.8821C67.7908 56.1945 65.1055 58.8798 61.7931 58.8798C60.4354 58.8798 59.1831 58.4287 58.1779 57.6682L43.7765 65.769C43.0462 66.1798 42.1545 66.1798 41.4242 65.769L27.0228 57.6682C26.0176 58.4287 24.7653 58.8798 23.4076 58.8798C20.0952 58.8798 17.4099 56.1945 17.4099 52.8821C17.4099 50.4226 18.8903 48.3089 21.0085 47.3834V31.2903C21.0085 30.4235 21.476 29.6242 22.2315 29.1993L36.6318 21.0991ZM38.1713 25.7383L25.8067 32.6934V47.3834C26.1273 47.5235 26.4333 47.6908 26.7218 47.8824L33.004 44.2926V37.8878C33.004 37.0345 33.4572 36.2454 34.1943 35.8155L40.2013 32.3114V27.1926C39.4252 26.8535 38.7347 26.3549 38.1713 25.7383ZM44.9995 27.1926V32.3114L51.0065 35.8155C51.7435 36.2454 52.1967 37.0345 52.1967 37.8878V44.2926L58.4789 47.8824C58.7674 47.6908 59.0734 47.5235 59.394 47.3834V32.6934L47.0294 25.7383C46.466 26.3549 45.7755 26.8535 44.9995 27.1926ZM55.8722 51.9192L50.3294 48.7518L43.8092 52.5553C43.0622 52.991 42.1385 52.991 41.3915 52.5553L34.8713 48.7518L29.3285 51.9192C29.3791 52.2327 29.4054 52.5543 29.4054 52.8821C29.4054 53.086 29.3952 53.2876 29.3753 53.4863L42.6004 60.9254L55.8254 53.4863C55.8055 53.2876 55.7954 53.086 55.7954 52.8821C55.7954 52.5543 55.8217 52.2327 55.8722 51.9192ZM37.8022 44.9066L42.6004 47.7055L47.3985 44.9066V39.2657L42.6004 36.4668L37.8022 39.2657V44.9066ZM23.4076 51.6825C22.7451 51.6825 22.2081 52.2196 22.2081 52.8821C22.2081 53.5446 22.7451 54.0816 23.4076 54.0816C24.0701 54.0816 24.6072 53.5446 24.6072 52.8821C24.6072 52.2196 24.0701 51.6825 23.4076 51.6825ZM61.7931 51.6825C61.1306 51.6825 60.5935 52.2196 60.5935 52.8821C60.5935 53.5446 61.1306 54.0816 61.7931 54.0816C62.4556 54.0816 62.9926 53.5446 62.9926 52.8821C62.9926 52.2196 62.4556 51.6825 61.7931 51.6825Z" fill="black"/>
</svg>
