<svg width="1151" height="360" viewBox="0 0 1151 360" fill="none" xmlns="http://www.w3.org/2000/svg">
<path d="M562.463 174.929H993.213" stroke="url(#paint0_linear_216_1884)" stroke-width="32"/>
<path d="M141.871 174.929L558.126 174.929" stroke="url(#paint1_linear_216_1884)" stroke-width="32"/>
<path d="M633.586 173.948H762.118C777.717 173.948 791.862 164.794 798.252 150.564L827.561 85.2908C833.951 71.0612 848.097 61.9065 863.695 61.9065H937.859" stroke="url(#paint2_linear_216_1884)" stroke-width="32"/>
<path d="M566.797 174.929H703.089C718.51 174.929 732.529 183.879 739.019 197.867L770.462 265.635C776.953 279.623 790.971 288.573 806.392 288.573H914.408" stroke="url(#paint3_linear_216_1884)" stroke-width="32"/>
<g filter="url(#filter0_d_216_1884)">
<mask id="path-5-outside-1_216_1884" maskUnits="userSpaceOnUse" x="19.9961" y="128.185" width="202" height="94" fill="black">
<rect fill="white" x="19.9961" y="128.185" width="202" height="94"/>
<path d="M19.9961 128.185H216.802V221.674H19.9961V128.185Z"/>
</mask>
<path d="M19.9961 128.185H216.802V221.674H19.9961V128.185Z" fill="#444444"/>
<path d="M211.851 128.185V221.674H221.753V128.185H211.851Z" fill="#F0F0F0" mask="url(#path-5-outside-1_216_1884)"/>
</g>
<mask id="path-7-inside-2_216_1884" fill="white">
<rect x="25.4194" y="133.67" width="82.5194" height="82.5194" rx="3.30078"/>
</mask>
<rect x="25.4194" y="133.67" width="82.5194" height="82.5194" rx="3.30078" fill="#F0F0F0" stroke="black" stroke-width="9.90233" mask="url(#path-7-inside-2_216_1884)"/>
<path d="M61.9983 183.612C60.9497 184.256 59.6603 184.579 58.1302 184.579C55.6117 184.579 53.5487 183.706 51.9413 181.961C50.2651 180.208 49.427 177.81 49.427 174.767C49.427 171.689 50.2737 169.222 51.9671 167.366C53.6604 165.509 55.8996 164.581 58.6847 164.581C61.1001 164.581 63.0384 165.195 64.4997 166.425C65.9696 167.645 66.812 169.171 67.0269 171.002H63.1201C62.8192 169.704 62.0843 168.797 60.9153 168.281C60.262 167.998 59.5357 167.856 58.7362 167.856C57.2062 167.856 55.9469 168.436 54.9584 169.596C53.9785 170.748 53.4885 172.485 53.4885 174.805C53.4885 177.143 54.0215 178.798 55.0873 179.769C56.1532 180.741 57.3652 181.226 58.7234 181.226C60.0557 181.226 61.1474 180.844 61.9983 180.079C62.8493 179.305 63.3737 178.295 63.5714 177.049H59.1746V173.877H67.0913V184.076H64.461L64.0613 181.703C63.2963 182.606 62.6086 183.242 61.9983 183.612ZM74.3762 170.022V184.076H70.65V170.022H74.3762ZM74.3762 164.955V168.346H70.65V164.955H74.3762ZM84.3817 181.459V184.205L82.6411 184.269C80.9047 184.33 79.7185 184.029 79.0824 183.367C78.6698 182.946 78.4635 182.297 78.4635 181.42V172.768H76.5037V170.151H78.4635V166.231H82.0995V170.151H84.3817V172.768H82.0995V180.195C82.0995 180.771 82.1726 181.132 82.3187 181.278C82.4649 181.416 82.9118 181.484 83.6597 181.484C83.7714 181.484 83.8875 181.484 84.0078 181.484C84.1367 181.476 84.2614 181.467 84.3817 181.459Z" fill="#111113"/>
<path d="M156.188 183.612C155.14 184.256 153.85 184.579 152.32 184.579C149.802 184.579 147.739 183.706 146.131 181.961C144.455 180.208 143.617 177.81 143.617 174.767C143.617 171.689 144.464 169.222 146.157 167.366C147.851 165.509 150.09 164.581 152.875 164.581C155.29 164.581 157.229 165.195 158.69 166.425C160.16 167.645 161.002 169.171 161.217 171.002H157.31C157.009 169.704 156.274 168.797 155.105 168.281C154.452 167.998 153.726 167.856 152.926 167.856C151.396 167.856 150.137 168.436 149.149 169.596C148.169 170.748 147.679 172.485 147.679 174.805C147.679 177.143 148.212 178.798 149.277 179.769C150.343 180.741 151.555 181.226 152.913 181.226C154.246 181.226 155.337 180.844 156.188 180.079C157.039 179.305 157.564 178.295 157.761 177.049H153.365V173.877H161.281V184.076H158.651L158.251 181.703C157.486 182.606 156.799 183.242 156.188 183.612ZM168.566 170.022V184.076H164.84V170.022H168.566ZM168.566 164.955V168.346H164.84V164.955H168.566ZM178.572 181.459V184.205L176.831 184.269C175.095 184.33 173.909 184.029 173.273 183.367C172.86 182.946 172.654 182.297 172.654 181.42V172.768H170.694V170.151H172.654V166.231H176.29V170.151H178.572V172.768H176.29V180.195C176.29 180.771 176.363 181.132 176.509 181.278C176.655 181.416 177.102 181.484 177.85 181.484C177.962 181.484 178.078 181.484 178.198 181.484C178.327 181.476 178.452 181.467 178.572 181.459ZM184.271 169.106C183.858 169.657 183.661 170.391 183.678 171.311H180.248C180.282 170.383 180.441 169.502 180.725 168.668C181.026 167.937 181.499 167.263 182.143 166.644C182.625 166.205 183.196 165.87 183.858 165.638C184.52 165.406 185.332 165.29 186.295 165.29C188.083 165.29 189.523 165.754 190.615 166.682C191.715 167.602 192.265 168.84 192.265 170.396C192.265 171.496 191.938 172.424 191.285 173.181C190.872 173.654 190.443 173.976 189.996 174.148C190.331 174.148 190.812 174.436 191.44 175.012C192.377 175.88 192.845 177.066 192.845 178.57C192.845 180.152 192.295 181.544 191.195 182.748C190.103 183.943 188.483 184.54 186.334 184.54C183.686 184.54 181.847 183.676 180.815 181.948C180.274 181.029 179.973 179.825 179.913 178.338H183.523C183.523 179.086 183.643 179.705 183.884 180.195C184.331 181.097 185.143 181.549 186.321 181.549C187.043 181.549 187.67 181.304 188.203 180.814C188.745 180.315 189.016 179.602 189.016 178.673C189.016 177.444 188.517 176.623 187.52 176.211C186.953 175.979 186.059 175.863 184.838 175.863V173.232C186.033 173.215 186.867 173.099 187.34 172.884C188.156 172.523 188.564 171.793 188.564 170.692C188.564 169.979 188.354 169.399 187.933 168.952C187.52 168.505 186.936 168.281 186.179 168.281C185.311 168.281 184.675 168.556 184.271 169.106Z" fill="#F5FFFD"/>
<path opacity="0.6" d="M116.639 163.584L132.053 174.929L116.639 186.274L116.639 163.584Z" fill="#7C7C7C"/>
<g filter="url(#filter1_d_216_1884)">
<mask id="path-11-outside-3_216_1884" maskUnits="userSpaceOnUse" x="909.408" y="13.8176" width="189" height="92" fill="black">
<rect fill="white" x="909.408" y="13.8176" width="189" height="92"/>
<path d="M914.408 13.8176H1098.41V105.818H914.408V13.8176Z"/>
</mask>
<path d="M914.408 13.8176H1098.41V105.818H914.408V13.8176Z" fill="#444444"/>
<path d="M919.359 105.818V13.8176H909.457V105.818H919.359Z" fill="#F0F0F0" mask="url(#path-11-outside-3_216_1884)"/>
</g>
<path d="M969.096 53.5604H959.567V57.9314H967.91V61.2322H959.567V69.2004H955.622V50.221H969.096V53.5604ZM975.246 55.1464V69.2004H971.52V55.1464H975.246ZM975.246 50.0792V53.4702H971.52V50.0792H975.246ZM978.895 50.1952H982.57V69.2004H978.895V50.1952ZM998.197 65.0745C998.102 65.9083 997.668 66.7549 996.895 67.6145C995.691 68.9812 994.006 69.6646 991.84 69.6646C990.052 69.6646 988.475 69.0887 987.108 67.9369C985.742 66.785 985.058 64.9112 985.058 62.3152C985.058 59.8826 985.673 58.0173 986.902 56.7194C988.14 55.4214 989.743 54.7724 991.711 54.7724C992.88 54.7724 993.933 54.9916 994.87 55.43C995.807 55.8684 996.581 56.5604 997.191 57.5059C997.741 58.3397 998.098 59.3067 998.261 60.407C998.356 61.0517 998.395 61.98 998.377 63.192H988.759C988.81 64.6017 989.253 65.5902 990.087 66.1575C990.594 66.51 991.204 66.6862 991.918 66.6862C992.674 66.6862 993.289 66.4713 993.761 66.0415C994.019 65.8094 994.247 65.4871 994.445 65.0745H998.197ZM994.561 60.768C994.501 59.7967 994.204 59.0617 993.671 58.5632C993.147 58.056 992.494 57.8024 991.711 57.8024C990.86 57.8024 990.199 58.0689 989.726 58.6019C989.262 59.1348 988.969 59.8568 988.849 60.768H994.561ZM1013.02 60.1878H1009.26C1009.19 59.6634 1009.01 59.1907 1008.73 58.7695C1008.32 58.2022 1007.68 57.9185 1006.81 57.9185C1005.57 57.9185 1004.73 58.5331 1004.27 59.7623C1004.03 60.4156 1003.91 61.2837 1003.91 62.3668C1003.91 63.3983 1004.03 64.2278 1004.27 64.8553C1004.71 66.0243 1005.53 66.6088 1006.75 66.6088C1007.6 66.6088 1008.22 66.3767 1008.58 65.9126C1008.94 65.4484 1009.16 64.8467 1009.23 64.1074H1012.99C1012.9 65.2249 1012.5 66.2822 1011.77 67.2793C1010.62 68.8867 1008.92 69.6904 1006.66 69.6904C1004.39 69.6904 1002.73 69.0199 1001.67 67.679C1000.6 66.338 1000.07 64.5974 1000.07 62.4571C1000.07 60.0416 1000.66 58.1635 1001.83 56.8225C1003.01 55.4816 1004.64 54.8111 1006.71 54.8111C1008.47 54.8111 1009.91 55.2065 1011.03 55.9973C1012.15 56.7881 1012.82 58.185 1013.02 60.1878ZM1027.28 56.9257C1028.47 58.4127 1029.06 60.1706 1029.06 62.1992C1029.06 64.2622 1028.47 66.0286 1027.28 67.4985C1026.1 68.9598 1024.3 69.6904 1021.88 69.6904C1019.47 69.6904 1017.67 68.9598 1016.48 67.4985C1015.29 66.0286 1014.7 64.2622 1014.7 62.1992C1014.7 60.1706 1015.29 58.4127 1016.48 56.9257C1017.67 55.4386 1019.47 54.6951 1021.88 54.6951C1024.3 54.6951 1026.1 55.4386 1027.28 56.9257ZM1021.87 57.8024C1020.8 57.8024 1019.97 58.185 1019.38 58.95C1018.81 59.7064 1018.52 60.7895 1018.52 62.1992C1018.52 63.6089 1018.81 64.6963 1019.38 65.4613C1019.97 66.2263 1020.8 66.6088 1021.87 66.6088C1022.94 66.6088 1023.77 66.2263 1024.35 65.4613C1024.92 64.6963 1025.21 63.6089 1025.21 62.1992C1025.21 60.7895 1024.92 59.7064 1024.35 58.95C1023.77 58.185 1022.94 57.8024 1021.87 57.8024ZM1035.49 55.1464V69.2004H1031.76V55.1464H1035.49ZM1035.49 50.0792V53.4702H1031.76V50.0792H1035.49ZM1045.67 57.8669C1044.42 57.8669 1043.57 58.3956 1043.11 59.4528C1042.86 60.0116 1042.74 60.725 1042.74 61.5932V69.2004H1039.08V55.1721H1042.63V57.2222C1043.1 56.5002 1043.55 55.9801 1043.97 55.6621C1044.73 55.0948 1045.68 54.8111 1046.84 54.8111C1048.3 54.8111 1049.48 55.1936 1050.4 55.9587C1051.33 56.7151 1051.8 57.9744 1051.8 59.7365V69.2004H1048.03V60.6519C1048.03 59.9127 1047.93 59.3454 1047.73 58.95C1047.37 58.2279 1046.69 57.8669 1045.67 57.8669Z" fill="#F5FFFD"/>
<g filter="url(#filter2_d_216_1884)">
<mask id="path-14-outside-4_216_1884" maskUnits="userSpaceOnUse" x="857.236" y="240.88" width="189" height="92" fill="black">
<rect fill="white" x="857.236" y="240.88" width="189" height="92"/>
<path d="M862.236 240.88H1046.24V332.88H862.236V240.88Z"/>
</mask>
<path d="M862.236 240.88H1046.24V332.88H862.236V240.88Z" fill="#444444"/>
<path d="M867.187 332.88V240.88H857.284V332.88H867.187Z" fill="#F0F0F0" mask="url(#path-14-outside-4_216_1884)"/>
</g>
<path d="M904.359 291.372H897.357L896.042 295.279H891.891L898.673 276.273H903.16L909.89 295.279H905.584L904.359 291.372ZM903.25 288.097L900.877 280.618L898.428 288.097H903.25ZM919.083 284.616C917.605 284.616 916.612 285.097 916.105 286.06C915.821 286.601 915.679 287.435 915.679 288.561V295.279H911.979V281.224H915.486V283.674C916.053 282.737 916.547 282.097 916.969 281.753C917.656 281.177 918.55 280.889 919.651 280.889C919.719 280.889 919.775 280.894 919.818 280.902C919.87 280.902 919.977 280.906 920.141 280.915V284.68C919.908 284.654 919.702 284.637 919.522 284.628C919.341 284.62 919.195 284.616 919.083 284.616ZM932.97 295.279L930.765 285.041L928.534 295.279H924.718L920.772 281.224H924.718L926.91 291.307L928.934 281.224H932.66L934.801 291.346L936.993 281.224H940.822L936.748 295.279H932.97ZM954.889 291.153C954.794 291.986 954.36 292.833 953.587 293.693C952.383 295.059 950.698 295.743 948.532 295.743C946.744 295.743 945.167 295.167 943.8 294.015C942.434 292.863 941.75 290.989 941.75 288.393C941.75 285.961 942.365 284.095 943.594 282.798C944.832 281.5 946.435 280.851 948.403 280.851C949.572 280.851 950.625 281.07 951.562 281.508C952.499 281.947 953.273 282.638 953.883 283.584C954.433 284.418 954.79 285.385 954.953 286.485C955.048 287.13 955.087 288.058 955.069 289.27H945.451C945.502 290.68 945.945 291.668 946.779 292.236C947.286 292.588 947.896 292.764 948.61 292.764C949.366 292.764 949.981 292.549 950.453 292.12C950.711 291.888 950.939 291.565 951.137 291.153H954.889ZM951.253 286.846C951.193 285.875 950.896 285.14 950.363 284.641C949.839 284.134 949.186 283.881 948.403 283.881C947.552 283.881 946.891 284.147 946.418 284.68C945.954 285.213 945.661 285.935 945.541 286.846H951.253ZM958.087 282.746C959.058 281.508 960.725 280.889 963.089 280.889C964.628 280.889 965.995 281.194 967.189 281.805C968.384 282.415 968.982 283.567 968.982 285.26V291.707C968.982 292.154 968.99 292.696 969.007 293.332C969.033 293.813 969.106 294.14 969.227 294.312C969.347 294.483 969.528 294.625 969.768 294.737V295.279H965.771C965.659 294.995 965.582 294.728 965.539 294.479C965.496 294.23 965.462 293.946 965.436 293.628C964.929 294.178 964.344 294.647 963.682 295.034C962.892 295.489 961.998 295.717 961.001 295.717C959.728 295.717 958.675 295.356 957.842 294.634C957.016 293.903 956.604 292.872 956.604 291.539C956.604 289.812 957.27 288.561 958.602 287.787C959.333 287.366 960.407 287.065 961.826 286.885L963.076 286.73C963.755 286.644 964.241 286.537 964.533 286.408C965.058 286.184 965.32 285.836 965.32 285.363C965.32 284.787 965.118 284.392 964.714 284.177C964.318 283.954 963.734 283.842 962.96 283.842C962.092 283.842 961.478 284.057 961.117 284.487C960.859 284.805 960.687 285.234 960.601 285.776H957.055C957.132 284.547 957.476 283.537 958.087 282.746ZM960.82 292.622C961.164 292.906 961.585 293.048 962.084 293.048C962.874 293.048 963.601 292.816 964.263 292.352C964.933 291.888 965.281 291.041 965.307 289.812V288.445C965.075 288.591 964.839 288.711 964.598 288.806C964.366 288.892 964.043 288.974 963.631 289.051L962.806 289.206C962.032 289.343 961.478 289.511 961.142 289.709C960.575 290.044 960.291 290.564 960.291 291.269C960.291 291.896 960.468 292.347 960.82 292.622ZM970.877 281.224H975.003L977.93 291.591L980.921 281.224H984.867L979.799 295.279H975.918L970.877 281.224ZM998.985 291.153C998.891 291.986 998.457 292.833 997.683 293.693C996.48 295.059 994.795 295.743 992.629 295.743C990.841 295.743 989.263 295.167 987.897 294.015C986.53 292.863 985.847 290.989 985.847 288.393C985.847 285.961 986.461 284.095 987.69 282.798C988.928 281.5 990.531 280.851 992.5 280.851C993.669 280.851 994.722 281.07 995.659 281.508C996.596 281.947 997.369 282.638 997.979 283.584C998.53 284.418 998.886 285.385 999.05 286.485C999.144 287.13 999.183 288.058 999.166 289.27H989.547C989.599 290.68 990.041 291.668 990.875 292.236C991.382 292.588 991.993 292.764 992.706 292.764C993.462 292.764 994.077 292.549 994.55 292.12C994.808 291.888 995.035 291.565 995.233 291.153H998.985ZM995.349 286.846C995.289 285.875 994.992 285.14 994.46 284.641C993.935 284.134 993.282 283.881 992.5 283.881C991.649 283.881 990.987 284.147 990.514 284.68C990.05 285.213 989.758 285.935 989.637 286.846H995.349Z" fill="#F5FFFD"/>
<g filter="url(#filter3_d_216_1884)">
<mask id="path-17-outside-5_216_1884" maskUnits="userSpaceOnUse" x="940.58" y="127.349" width="190" height="92" fill="black">
<rect fill="white" x="940.58" y="127.349" width="190" height="92"/>
<path d="M945.58 127.349H1130.39V219.349H945.58V127.349Z"/>
</mask>
<path d="M945.58 127.349H1130.39V219.349H945.58V127.349Z" fill="#444444"/>
<path d="M950.531 219.349V127.349H940.629V219.349H950.531Z" fill="#F0F0F0" mask="url(#path-17-outside-5_216_1884)"/>
</g>
<path d="M978.952 174.428H969.72V179.314H980.242V182.731H965.839V163.726H979.778V167.091H969.72V171.127H978.952V174.428ZM997.145 163.726V167.091H991.459V182.731H987.462V167.091H981.75V163.726H997.145ZM1010.81 182.731V174.247H1003.39V182.731H999.453V163.726H1003.39V170.972H1010.81V163.726H1014.76V182.731H1010.81ZM1025.46 179.985C1026.4 179.985 1027.16 179.882 1027.74 179.675C1028.85 179.28 1029.41 178.545 1029.41 177.471C1029.41 176.843 1029.13 176.357 1028.58 176.014C1028.03 175.678 1027.17 175.382 1025.99 175.124L1023.98 174.673C1022 174.226 1020.63 173.74 1019.88 173.216C1018.6 172.339 1017.96 170.968 1017.96 169.103C1017.96 167.401 1018.57 165.987 1019.81 164.861C1021.05 163.735 1022.87 163.172 1025.27 163.172C1027.27 163.172 1028.98 163.704 1030.39 164.77C1031.8 165.828 1032.55 167.366 1032.62 169.386H1028.8C1028.73 168.243 1028.23 167.431 1027.3 166.949C1026.68 166.631 1025.92 166.472 1025 166.472C1023.97 166.472 1023.16 166.679 1022.55 167.091C1021.94 167.504 1021.63 168.08 1021.63 168.819C1021.63 169.498 1021.93 170.005 1022.53 170.34C1022.92 170.564 1023.74 170.826 1025.01 171.127L1028.28 171.913C1029.72 172.257 1030.8 172.717 1031.53 173.293C1032.67 174.187 1033.23 175.481 1033.23 177.174C1033.23 178.91 1032.57 180.354 1031.24 181.506C1029.91 182.65 1028.04 183.221 1025.61 183.221C1023.14 183.221 1021.19 182.658 1019.77 181.532C1018.36 180.397 1017.65 178.842 1017.65 176.865H1021.44C1021.56 177.733 1021.79 178.382 1022.15 178.812C1022.79 179.594 1023.9 179.985 1025.46 179.985ZM1042.31 180.114V182.86L1040.57 182.925C1038.83 182.985 1037.65 182.684 1037.01 182.022C1036.6 181.601 1036.39 180.952 1036.39 180.075V171.423H1034.43V168.806H1036.39V164.886H1040.03V168.806H1042.31V171.423H1040.03V178.85C1040.03 179.426 1040.1 179.787 1040.25 179.933C1040.39 180.071 1040.84 180.14 1041.59 180.14C1041.7 180.14 1041.82 180.14 1041.94 180.14C1042.07 180.131 1042.19 180.122 1042.31 180.114ZM1056.39 170.456C1057.58 171.944 1058.17 173.701 1058.17 175.73C1058.17 177.793 1057.58 179.559 1056.39 181.029C1055.21 182.491 1053.4 183.221 1050.99 183.221C1048.57 183.221 1046.77 182.491 1045.59 181.029C1044.4 179.559 1043.81 177.793 1043.81 175.73C1043.81 173.701 1044.4 171.944 1045.59 170.456C1046.77 168.969 1048.57 168.226 1050.99 168.226C1053.4 168.226 1055.21 168.969 1056.39 170.456ZM1050.98 171.333C1049.9 171.333 1049.07 171.716 1048.49 172.481C1047.91 173.237 1047.62 174.32 1047.62 175.73C1047.62 177.14 1047.91 178.227 1048.49 178.992C1049.07 179.757 1049.9 180.14 1050.98 180.14C1052.05 180.14 1052.88 179.757 1053.45 178.992C1054.03 178.227 1054.32 177.14 1054.32 175.73C1054.32 174.32 1054.03 173.237 1053.45 172.481C1052.88 171.716 1052.05 171.333 1050.98 171.333ZM1067.88 172.068C1066.4 172.068 1065.41 172.55 1064.9 173.512C1064.62 174.054 1064.48 174.888 1064.48 176.014V182.731H1060.78V168.677H1064.28V171.127C1064.85 170.19 1065.34 169.55 1065.77 169.206C1066.45 168.63 1067.35 168.342 1068.45 168.342C1068.52 168.342 1068.57 168.346 1068.61 168.355C1068.67 168.355 1068.77 168.359 1068.94 168.368V172.133C1068.71 172.107 1068.5 172.09 1068.32 172.081C1068.14 172.072 1067.99 172.068 1067.88 172.068ZM1071.63 170.199C1072.6 168.961 1074.27 168.342 1076.63 168.342C1078.17 168.342 1079.54 168.647 1080.73 169.257C1081.93 169.868 1082.53 171.019 1082.53 172.713V179.16C1082.53 179.607 1082.54 180.148 1082.55 180.784C1082.58 181.266 1082.65 181.592 1082.77 181.764C1082.89 181.936 1083.07 182.078 1083.31 182.19V182.731H1079.32C1079.2 182.448 1079.13 182.181 1079.08 181.932C1079.04 181.683 1079.01 181.399 1078.98 181.081C1078.47 181.631 1077.89 182.099 1077.23 182.486C1076.44 182.942 1075.54 183.17 1074.55 183.17C1073.27 183.17 1072.22 182.809 1071.39 182.087C1070.56 181.356 1070.15 180.324 1070.15 178.992C1070.15 177.264 1070.82 176.014 1072.15 175.24C1072.88 174.819 1073.95 174.518 1075.37 174.337L1076.62 174.183C1077.3 174.097 1077.79 173.989 1078.08 173.86C1078.6 173.637 1078.87 173.289 1078.87 172.816C1078.87 172.24 1078.66 171.845 1078.26 171.63C1077.86 171.406 1077.28 171.295 1076.51 171.295C1075.64 171.295 1075.02 171.509 1074.66 171.939C1074.4 172.257 1074.23 172.687 1074.15 173.229H1070.6C1070.68 171.999 1071.02 170.989 1071.63 170.199ZM1074.37 180.075C1074.71 180.359 1075.13 180.501 1075.63 180.501C1076.42 180.501 1077.15 180.269 1077.81 179.804C1078.48 179.34 1078.83 178.493 1078.85 177.264V175.898C1078.62 176.044 1078.38 176.164 1078.14 176.259C1077.91 176.345 1077.59 176.426 1077.18 176.504L1076.35 176.658C1075.58 176.796 1075.02 176.963 1074.69 177.161C1074.12 177.496 1073.84 178.016 1073.84 178.721C1073.84 179.349 1074.01 179.8 1074.37 180.075ZM1089.77 185.194C1090.17 185.529 1090.83 185.697 1091.77 185.697C1093.1 185.697 1093.98 185.254 1094.43 184.369C1094.72 183.801 1094.87 182.847 1094.87 181.506V180.604C1094.51 181.205 1094.14 181.657 1093.73 181.958C1093 182.516 1092.05 182.796 1090.88 182.796C1089.08 182.796 1087.63 182.164 1086.55 180.9C1085.48 179.628 1084.94 177.909 1084.94 175.743C1084.94 173.654 1085.46 171.901 1086.5 170.482C1087.54 169.055 1089.01 168.342 1090.92 168.342C1091.63 168.342 1092.24 168.449 1092.76 168.664C1093.66 169.034 1094.38 169.713 1094.93 170.701V168.677H1098.5V182.009C1098.5 183.823 1098.2 185.19 1097.59 186.109C1096.54 187.691 1094.53 188.482 1091.55 188.482C1089.76 188.482 1088.29 188.129 1087.16 187.424C1086.02 186.72 1085.39 185.667 1085.27 184.266H1089.27C1089.37 184.695 1089.54 185.005 1089.77 185.194ZM1089.15 177.935C1089.65 179.121 1090.55 179.714 1091.84 179.714C1092.7 179.714 1093.42 179.392 1094.02 178.747C1094.61 178.094 1094.9 177.058 1094.9 175.64C1094.9 174.307 1094.62 173.293 1094.05 172.597C1093.5 171.901 1092.74 171.552 1091.8 171.552C1090.51 171.552 1089.62 172.158 1089.13 173.37C1088.87 174.015 1088.74 174.81 1088.74 175.756C1088.74 176.572 1088.88 177.299 1089.15 177.935ZM1113.97 178.605C1113.88 179.439 1113.45 180.286 1112.67 181.145C1111.47 182.512 1109.78 183.195 1107.62 183.195C1105.83 183.195 1104.25 182.619 1102.89 181.468C1101.52 180.316 1100.84 178.442 1100.84 175.846C1100.84 173.413 1101.45 171.548 1102.68 170.25C1103.92 168.952 1105.52 168.303 1107.49 168.303C1108.66 168.303 1109.71 168.522 1110.65 168.961C1111.59 169.399 1112.36 170.091 1112.97 171.037C1113.52 171.87 1113.88 172.837 1114.04 173.938C1114.13 174.582 1114.17 175.511 1114.16 176.723H1104.54C1104.59 178.132 1105.03 179.121 1105.86 179.688C1106.37 180.041 1106.98 180.217 1107.7 180.217C1108.45 180.217 1109.07 180.002 1109.54 179.572C1109.8 179.34 1110.02 179.018 1110.22 178.605H1113.97ZM1110.34 174.299C1110.28 173.327 1109.98 172.592 1109.45 172.094C1108.92 171.587 1108.27 171.333 1107.49 171.333C1106.64 171.333 1105.98 171.6 1105.5 172.133C1105.04 172.666 1104.75 173.388 1104.63 174.299H1110.34Z" fill="#F5FFFD"/>
<path opacity="0.69" d="M486.63 124.907V94.3848H519.755" stroke="#6752F7" stroke-width="1.51422" stroke-dasharray="3.03 3.03"/>
<path opacity="0.69" d="M627.662 124.907V94.3848H593.166" stroke="#6752F7" stroke-width="1.51422" stroke-dasharray="3.03 3.03"/>
<path opacity="0.69" d="M627.661 229.625V260.147H599.344" stroke="#6752F7" stroke-width="1.51422" stroke-dasharray="3.03 3.03"/>
<path opacity="0.69" d="M487.371 229.625V260.147H515.688" stroke="#6752F7" stroke-width="1.51422" stroke-dasharray="3.03 3.03"/>
<path d="M633.615 135.942V134.63L632.48 133.974L559.262 91.7024L558.127 91.0467L556.991 91.7024L483.774 133.974L482.638 134.63V135.942L482.638 220.486V221.797L483.774 222.453L556.991 264.725L558.127 265.38L559.262 264.725L632.48 222.453L633.615 221.797V220.486V135.942Z" fill="#474C59" stroke="#474C59" stroke-width="4.54267"/>
<path d="M484.909 135.941L558.127 178.213L558.127 262.757L484.909 220.485L484.909 135.941Z" fill="url(#paint4_linear_216_1884)"/>
<rect width="84.5442" height="84.5442" transform="matrix(0.866025 -0.5 2.20305e-08 1 558.126 178.213)" fill="url(#paint5_linear_216_1884)"/>
<path d="M558.126 93.6694L631.344 135.942L558.126 178.214L484.909 135.942L558.126 93.6694Z" fill="url(#paint6_linear_216_1884)"/>
<path d="M504.47 182.665C504.981 182.96 505.397 183.135 505.718 183.19C506.326 183.29 506.632 183.001 506.638 182.323C506.641 181.928 506.493 181.535 506.195 181.144C505.896 180.759 505.425 180.3 504.783 179.766L503.687 178.847C502.609 177.941 501.865 177.204 501.455 176.634C500.76 175.677 500.417 174.611 500.427 173.434C500.435 172.361 500.781 171.664 501.463 171.344C502.145 171.024 503.141 171.242 504.451 171.999C505.545 172.63 506.474 173.505 507.239 174.622C508.008 175.736 508.406 176.941 508.433 178.237L506.349 177.033C506.317 176.29 506.049 175.621 505.544 175.024C505.208 174.628 504.788 174.285 504.286 173.995C503.727 173.673 503.28 173.545 502.944 173.613C502.609 173.681 502.439 173.948 502.435 174.414C502.432 174.843 502.594 175.257 502.921 175.659C503.131 175.922 503.58 176.347 504.269 176.935L506.054 178.464C506.836 179.134 507.425 179.766 507.822 180.359C508.437 181.281 508.74 182.276 508.731 183.344C508.722 184.439 508.351 185.14 507.617 185.446C506.888 185.75 505.861 185.52 504.537 184.755C503.185 183.974 502.124 183.005 501.355 181.848C500.586 180.685 500.207 179.48 500.217 178.233L502.288 179.428C502.349 180.014 502.475 180.498 502.665 180.88C503.014 181.576 503.615 182.172 504.47 182.665ZM514.51 183.747C514.344 183.221 514.015 182.816 513.522 182.531C512.949 182.2 512.562 182.192 512.361 182.507C512.251 182.688 512.194 183.02 512.19 183.503L512.147 188.838L510.111 187.663L510.184 178.814L512.135 179.941L512.124 181.234C512.377 180.917 512.614 180.724 512.837 180.656C513.229 180.534 513.735 180.652 514.355 181.01C514.942 181.349 515.415 181.772 515.774 182.279C516.063 182.723 516.281 183.206 516.428 183.727C516.695 183.358 517.024 183.164 517.416 183.145C517.831 183.14 518.292 183.283 518.8 183.576C519.138 183.771 519.47 184.04 519.798 184.381C520.125 184.723 520.421 185.161 520.686 185.695C520.899 186.128 521.042 186.592 521.113 187.085C521.158 187.411 521.178 187.861 521.173 188.435L521.113 194.015L519.056 192.827L519.103 187.183C519.105 186.847 519.061 186.543 518.969 186.272C518.793 185.757 518.466 185.361 517.988 185.085C517.433 184.765 517.049 184.81 516.833 185.219C516.723 185.438 516.666 185.746 516.663 186.142L516.619 191.42L514.598 190.253L514.641 184.975C514.645 184.449 514.602 184.04 514.51 183.747ZM523.333 187.354C523.87 186.879 524.784 187.015 526.076 187.761C526.916 188.246 527.661 188.869 528.311 189.631C528.96 190.393 529.281 191.308 529.272 192.376L529.238 196.442C529.236 196.724 529.238 197.069 529.244 197.475C529.256 197.787 529.294 198.016 529.359 198.162C529.424 198.309 529.522 198.455 529.652 198.602L529.65 198.943L527.466 197.683C527.407 197.468 527.366 197.276 527.344 197.105C527.321 196.934 527.304 196.745 527.292 196.536C527.012 196.723 526.69 196.834 526.326 196.869C525.892 196.907 525.403 196.769 524.858 196.454C524.163 196.053 523.59 195.493 523.138 194.775C522.691 194.054 522.471 193.273 522.478 192.433C522.487 191.343 522.857 190.764 523.589 190.696C523.99 190.661 524.579 190.81 525.354 191.144L526.038 191.441C526.41 191.601 526.676 191.686 526.836 191.697C527.123 191.721 527.268 191.584 527.271 191.286C527.274 190.923 527.166 190.61 526.946 190.347C526.731 190.081 526.412 189.826 525.99 189.582C525.516 189.308 525.179 189.25 524.979 189.407C524.837 189.527 524.741 189.744 524.691 190.058L522.754 188.94C522.803 188.189 522.996 187.66 523.333 187.354ZM524.775 194.446C524.962 194.733 525.191 194.955 525.463 195.113C525.895 195.362 526.293 195.445 526.657 195.361C527.026 195.279 527.22 194.855 527.241 194.088L527.248 193.226C527.12 193.245 526.991 193.246 526.859 193.23C526.731 193.211 526.555 193.161 526.329 193.079L525.878 192.917C525.454 192.759 525.151 192.69 524.966 192.709C524.655 192.742 524.497 192.98 524.493 193.425C524.49 193.821 524.584 194.161 524.775 194.446ZM534.924 195.231C534.116 194.764 533.571 194.755 533.289 195.202C533.132 195.454 533.05 195.935 533.044 196.646L533.009 200.883L530.988 199.716L531.061 190.851L532.976 191.957L532.964 193.502C533.278 193.09 533.552 192.842 533.784 192.758C534.162 192.612 534.652 192.712 535.253 193.059C535.291 193.081 535.321 193.101 535.345 193.12C535.373 193.136 535.431 193.173 535.521 193.23L535.501 195.605C535.375 195.515 535.262 195.439 535.163 195.377C535.065 195.315 534.985 195.266 534.924 195.231ZM540.158 203.351L540.144 205.084L539.192 204.575C538.244 204.066 537.597 203.502 537.253 202.884C537.03 202.488 536.921 202.013 536.925 201.46L536.97 196.003L535.899 195.385L535.913 193.734L536.983 194.352L537.004 191.88L538.99 193.027L538.97 195.499L540.216 196.219L540.203 197.87L538.956 197.15L538.918 201.835C538.915 202.198 538.953 202.449 539.032 202.587C539.111 202.72 539.355 202.904 539.763 203.14C539.824 203.175 539.888 203.212 539.953 203.25C540.024 203.285 540.092 203.319 540.158 203.351ZM498.644 199.233C497.862 199.604 496.868 199.441 495.661 198.744C494.168 197.882 492.999 196.652 492.153 195.052C491.308 193.447 490.893 191.677 490.909 189.741C490.926 187.649 491.425 186.316 492.407 185.744C493.26 185.245 494.339 185.373 495.645 186.126C497.391 187.135 498.663 188.534 499.46 190.323C499.9 191.323 500.133 192.207 500.16 192.974L497.991 191.722C497.855 191.066 497.677 190.528 497.459 190.108C497.069 189.359 496.486 188.762 495.712 188.314C494.923 187.859 494.298 187.868 493.836 188.343C493.375 188.812 493.138 189.718 493.127 191.063C493.116 192.408 493.347 193.554 493.821 194.503C494.299 195.449 494.909 196.137 495.651 196.565C496.412 197.004 496.994 197.052 497.398 196.707C497.621 196.526 497.808 196.168 497.959 195.634L500.107 196.874C499.908 198.072 499.421 198.858 498.644 199.233ZM508.04 197.777C508.68 199.089 508.995 200.385 508.984 201.664C508.974 202.966 508.641 203.893 507.985 204.446C507.329 204.993 506.342 204.886 505.022 204.124C503.703 203.363 502.723 202.334 502.083 201.038C501.442 199.737 501.127 198.436 501.138 197.134C501.148 195.855 501.482 194.933 502.137 194.369C502.793 193.805 503.781 193.904 505.1 194.666C506.419 195.428 507.399 196.465 508.04 197.777ZM505.077 196.622C504.49 196.283 504.035 196.263 503.712 196.561C503.393 196.856 503.23 197.449 503.223 198.338C503.216 199.227 503.367 200.004 503.678 200.668C503.993 201.335 504.444 201.838 505.031 202.177C505.618 202.516 506.071 202.535 506.39 202.234C506.708 201.933 506.871 201.338 506.878 200.449C506.886 199.559 506.734 198.785 506.423 198.127C506.113 197.462 505.664 196.961 505.077 196.622ZM514.064 201.852C513.383 201.458 512.913 201.522 512.654 202.043C512.52 202.319 512.45 202.731 512.446 203.279L512.406 208.077L510.406 206.922L510.479 198.074L512.416 199.192L512.405 200.485C512.667 200.179 512.914 199.992 513.146 199.924C513.562 199.805 514.087 199.928 514.721 200.294C515.514 200.752 516.16 201.368 516.659 202.14C517.162 202.91 517.409 203.851 517.4 204.962L517.351 210.932L515.294 209.744L515.338 204.352C515.342 203.886 515.291 203.497 515.185 203.185C514.992 202.616 514.618 202.171 514.064 201.852ZM522.739 212.384L522.724 214.116L521.773 213.608C520.824 213.098 520.178 212.534 519.834 211.916C519.611 211.52 519.501 211.046 519.506 210.493L519.551 205.036L518.48 204.418L518.494 202.767L519.564 203.385L519.584 200.912L521.571 202.059L521.55 204.531L522.797 205.251L522.784 206.902L521.537 206.182L521.498 210.867C521.495 211.23 521.533 211.481 521.613 211.619C521.692 211.752 521.935 211.936 522.344 212.172C522.405 212.207 522.468 212.244 522.534 212.282C522.605 212.317 522.673 212.351 522.739 212.384ZM527.929 210.281C527.121 209.815 526.576 209.806 526.294 210.253C526.137 210.505 526.055 210.986 526.049 211.696L526.014 215.934L523.993 214.767L524.066 205.902L525.981 207.008L525.969 208.553C526.283 208.141 526.557 207.893 526.789 207.809C527.167 207.663 527.657 207.763 528.258 208.11C528.296 208.132 528.326 208.152 528.35 208.171C528.378 208.187 528.436 208.224 528.526 208.281L528.506 210.656C528.38 210.566 528.267 210.49 528.168 210.428C528.07 210.365 527.99 210.317 527.929 210.281ZM529.988 210.286C530.525 209.811 531.439 209.947 532.731 210.692C533.571 211.177 534.316 211.801 534.966 212.563C535.615 213.325 535.936 214.24 535.927 215.308L535.894 219.374C535.891 219.656 535.893 220 535.899 220.407C535.911 220.719 535.949 220.948 536.014 221.094C536.079 221.24 536.177 221.387 536.308 221.533L536.305 221.875L534.121 220.614C534.062 220.4 534.021 220.208 533.999 220.037C533.976 219.866 533.959 219.676 533.947 219.468C533.667 219.655 533.345 219.766 532.982 219.801C532.547 219.839 532.058 219.701 531.513 219.386C530.818 218.985 530.245 218.425 529.793 217.707C529.346 216.986 529.126 216.205 529.133 215.364C529.142 214.275 529.512 213.696 530.244 213.628C530.645 213.593 531.234 213.742 532.009 214.075L532.693 214.372C533.065 214.532 533.331 214.618 533.491 214.628C533.779 214.653 533.924 214.516 533.926 214.218C533.929 213.855 533.821 213.541 533.601 213.278C533.386 213.013 533.068 212.758 532.645 212.514C532.171 212.24 531.834 212.182 531.634 212.339C531.492 212.458 531.396 212.675 531.346 212.99L529.409 211.871C529.458 211.12 529.651 210.592 529.988 210.286ZM531.43 217.377C531.617 217.665 531.846 217.887 532.118 218.044C532.55 218.294 532.948 218.376 533.312 218.292C533.681 218.211 533.876 217.787 533.896 217.02L533.903 216.157C533.776 216.176 533.646 216.178 533.514 216.162C533.387 216.143 533.21 216.092 532.984 216.011L532.533 215.848C532.109 215.691 531.806 215.622 531.622 215.641C531.31 215.674 531.152 215.912 531.149 216.357C531.145 216.752 531.239 217.093 531.43 217.377ZM544.353 220.81L542.296 219.622C542.261 219.27 542.167 218.916 542.015 218.561C541.792 218.073 541.444 217.692 540.97 217.418C540.293 217.028 539.828 217.148 539.572 217.78C539.438 218.116 539.367 218.626 539.362 219.309C539.356 219.96 539.418 220.521 539.546 220.993C539.779 221.868 540.227 222.497 540.889 222.879C541.359 223.15 541.693 223.197 541.893 223.018C542.093 222.839 542.216 222.528 542.262 222.086L544.311 223.27C544.259 223.947 544.032 224.487 543.633 224.888C542.995 225.539 542.059 225.508 540.824 224.795C539.589 224.082 538.684 223.134 538.109 221.952C537.533 220.77 537.251 219.504 537.262 218.154C537.275 216.631 537.606 215.632 538.256 215.157C538.907 214.683 539.798 214.772 540.929 215.426C541.892 215.981 542.676 216.685 543.283 217.536C543.894 218.39 544.25 219.481 544.353 220.81ZM549.222 227.674L549.208 229.406L548.256 228.898C547.308 228.388 546.661 227.824 546.317 227.206C546.094 226.81 545.985 226.336 545.989 225.783L546.034 220.326L544.963 219.708L544.977 218.057L546.047 218.675L546.068 216.202L548.054 217.349L548.034 219.822L549.28 220.541L549.267 222.192L548.02 221.473L547.982 226.157C547.979 226.52 548.017 226.771 548.096 226.909C548.175 227.042 548.419 227.226 548.827 227.462C548.888 227.498 548.952 227.534 549.017 227.572C549.088 227.607 549.156 227.641 549.222 227.674Z" fill="#444444"/>
<path fill-rule="evenodd" clip-rule="evenodd" d="M574.682 123.105C575.848 122.454 577.734 122.459 578.896 123.118L584.633 126.369C585.795 127.027 585.792 128.089 584.626 128.741L581.256 130.624C582.271 131.648 583.052 132.724 583.598 133.829L588.358 133.843C590.004 133.848 591.336 134.603 591.333 135.529L591.319 140.103C591.316 141.029 589.98 141.776 588.334 141.771L583.574 141.757C583.021 142.858 582.234 143.93 581.213 144.948L584.572 146.851C585.733 147.51 585.73 148.571 584.565 149.223L578.808 152.44C577.643 153.091 575.756 153.085 574.594 152.427L571.235 150.523C569.42 151.091 567.51 151.527 565.549 151.83L565.541 154.509C565.538 155.435 564.202 156.182 562.556 156.177L554.429 156.153C552.784 156.148 551.452 155.393 551.455 154.467L551.463 151.788C549.503 151.473 547.596 151.026 545.784 150.447L542.414 152.331C541.248 152.982 539.361 152.977 538.2 152.318L532.463 149.067C531.301 148.409 531.304 147.347 532.47 146.695L535.84 144.812C534.825 143.788 534.044 142.712 533.498 141.607L528.738 141.593C527.092 141.588 525.76 140.833 525.763 139.907L525.777 135.333C525.779 134.407 527.116 133.66 528.761 133.665L533.522 133.679C534.075 132.578 534.862 131.506 535.883 130.488L532.524 128.585C531.362 127.926 531.366 126.865 532.531 126.213L538.287 122.996C539.453 122.345 541.34 122.35 542.502 123.009L545.861 124.913C547.676 124.345 549.586 123.909 551.547 123.606L551.555 120.927C551.558 120.001 552.894 119.254 554.54 119.259L562.666 119.283C564.312 119.288 565.644 120.043 565.641 120.969L565.633 123.648C567.592 123.963 569.5 124.41 571.312 124.989L574.682 123.105ZM551.186 133.546C555.265 131.266 561.869 131.285 565.935 133.59C570.001 135.894 569.99 139.61 565.91 141.89C561.83 144.17 555.227 144.151 551.161 141.846C547.095 139.542 547.106 135.826 551.186 133.546Z" fill="#6E7CA5"/>
<defs>
<filter id="filter0_d_216_1884" x="0.191441" y="114.982" width="241.366" height="133.098" filterUnits="userSpaceOnUse" color-interpolation-filters="sRGB">
<feFlood flood-opacity="0" result="BackgroundImageFix"/>
<feColorMatrix in="SourceAlpha" type="matrix" values="0 0 0 0 0 0 0 0 0 0 0 0 0 0 0 0 0 0 127 0" result="hardAlpha"/>
<feOffset dy="6.60155"/>
<feGaussianBlur stdDeviation="9.90233"/>
<feComposite in2="hardAlpha" operator="out"/>
<feColorMatrix type="matrix" values="0 0 0 0 0 0 0 0 0 0 0 0 0 0 0 0 0 0 0.25 0"/>
<feBlend mode="normal" in2="BackgroundImageFix" result="effect1_dropShadow_216_1884"/>
<feBlend mode="normal" in="SourceGraphic" in2="effect1_dropShadow_216_1884" result="shape"/>
</filter>
<filter id="filter1_d_216_1884" x="889.652" y="0.614524" width="228.56" height="131.609" filterUnits="userSpaceOnUse" color-interpolation-filters="sRGB">
<feFlood flood-opacity="0" result="BackgroundImageFix"/>
<feColorMatrix in="SourceAlpha" type="matrix" values="0 0 0 0 0 0 0 0 0 0 0 0 0 0 0 0 0 0 127 0" result="hardAlpha"/>
<feOffset dy="6.60155"/>
<feGaussianBlur stdDeviation="9.90233"/>
<feComposite in2="hardAlpha" operator="out"/>
<feColorMatrix type="matrix" values="0 0 0 0 0 0 0 0 0 0 0 0 0 0 0 0 0 0 0.25 0"/>
<feBlend mode="normal" in2="BackgroundImageFix" result="effect1_dropShadow_216_1884"/>
<feBlend mode="normal" in="SourceGraphic" in2="effect1_dropShadow_216_1884" result="shape"/>
</filter>
<filter id="filter2_d_216_1884" x="837.48" y="227.677" width="228.56" height="131.609" filterUnits="userSpaceOnUse" color-interpolation-filters="sRGB">
<feFlood flood-opacity="0" result="BackgroundImageFix"/>
<feColorMatrix in="SourceAlpha" type="matrix" values="0 0 0 0 0 0 0 0 0 0 0 0 0 0 0 0 0 0 127 0" result="hardAlpha"/>
<feOffset dy="6.60155"/>
<feGaussianBlur stdDeviation="9.90233"/>
<feComposite in2="hardAlpha" operator="out"/>
<feColorMatrix type="matrix" values="0 0 0 0 0 0 0 0 0 0 0 0 0 0 0 0 0 0 0.25 0"/>
<feBlend mode="normal" in2="BackgroundImageFix" result="effect1_dropShadow_216_1884"/>
<feBlend mode="normal" in="SourceGraphic" in2="effect1_dropShadow_216_1884" result="shape"/>
</filter>
<filter id="filter3_d_216_1884" x="920.824" y="114.146" width="229.366" height="131.609" filterUnits="userSpaceOnUse" color-interpolation-filters="sRGB">
<feFlood flood-opacity="0" result="BackgroundImageFix"/>
<feColorMatrix in="SourceAlpha" type="matrix" values="0 0 0 0 0 0 0 0 0 0 0 0 0 0 0 0 0 0 127 0" result="hardAlpha"/>
<feOffset dy="6.60155"/>
<feGaussianBlur stdDeviation="9.90233"/>
<feComposite in2="hardAlpha" operator="out"/>
<feColorMatrix type="matrix" values="0 0 0 0 0 0 0 0 0 0 0 0 0 0 0 0 0 0 0.25 0"/>
<feBlend mode="normal" in2="BackgroundImageFix" result="effect1_dropShadow_216_1884"/>
<feBlend mode="normal" in="SourceGraphic" in2="effect1_dropShadow_216_1884" result="shape"/>
</filter>
<linearGradient id="paint0_linear_216_1884" x1="573.565" y1="174.929" x2="993.213" y2="174.929" gradientUnits="userSpaceOnUse">
<stop offset="5.60229e-10" stop-color="#6752F8" stop-opacity="0"/>
<stop offset="0.43598" stop-color="#6752F8"/>
<stop offset="1" stop-color="#6752F8" stop-opacity="0"/>
</linearGradient>
<linearGradient id="paint1_linear_216_1884" x1="95.8215" y1="174.929" x2="465.385" y2="174.929" gradientUnits="userSpaceOnUse">
<stop stop-color="#6752F8" stop-opacity="0"/>
<stop offset="0.579235" stop-color="#6752F8"/>
</linearGradient>
<linearGradient id="paint2_linear_216_1884" x1="633.586" y1="173.948" x2="914.731" y2="173.948" gradientUnits="userSpaceOnUse">
<stop offset="0.0048754" stop-color="#6752F8" stop-opacity="0"/>
<stop offset="0.516793" stop-color="#6752F8"/>
<stop offset="1" stop-color="#6752F8" stop-opacity="0"/>
</linearGradient>
<linearGradient id="paint3_linear_216_1884" x1="611.665" y1="288.573" x2="878.924" y2="288.573" gradientUnits="userSpaceOnUse">
<stop stop-color="#6752F8" stop-opacity="0"/>
<stop offset="0.367518" stop-color="#6752F8"/>
<stop offset="1" stop-color="#6752F8" stop-opacity="0"/>
</linearGradient>
<linearGradient id="paint4_linear_216_1884" x1="525.413" y1="244.58" x2="525.413" y2="159.614" gradientUnits="userSpaceOnUse">
<stop stop-color="#CAD1E7"/>
<stop offset="1" stop-color="#B4BDD8"/>
</linearGradient>
<linearGradient id="paint5_linear_216_1884" x1="42.2721" y1="0.845438" x2="8.45442" y2="68.4808" gradientUnits="userSpaceOnUse">
<stop stop-color="#CFD8EF"/>
<stop offset="1" stop-color="#D5DAE9"/>
</linearGradient>
<linearGradient id="paint6_linear_216_1884" x1="558.04" y1="93.6694" x2="525.62" y2="163.068" gradientUnits="userSpaceOnUse">
<stop stop-color="#EDF1FD"/>
<stop offset="1" stop-color="#E1E5F1"/>
</linearGradient>
</defs>
</svg>
